<svg version="1.1" xmlns="http://www.w3.org/2000/svg" viewBox="0 0 526.4914060639969 373.72415065431534" width="526.4914060639969" height="373.72415065431534" filter="invert(93%) hue-rotate(180deg)">
  <!-- svg-source:excalidraw -->
  
  <defs>
    <style class="style-fonts">
      @font-face {
        font-family: "Virgil";
        src: url("https://excalidraw.com/Virgil.woff2");
      }
      @font-face {
        font-family: "Cascadia";
        src: url("https://excalidraw.com/Cascadia.woff2");
      }
    </style>
    
  </defs>
  <g stroke-linecap="round" transform="translate(192.4971657289832 130.87848696044057) rotate(0 67.79800633780269 48.82777132372638)"><path d="M24.41 0 M24.41 0 C55.69 -2.28, 83.63 -2.31, 111.18 0 M24.41 0 C51.61 -1.5, 78.44 -0.15, 111.18 0 M111.18 0 C128.47 -1.97, 134.92 7.53, 135.6 24.41 M111.18 0 C126.45 -0.05, 137.72 6.57, 135.6 24.41 M135.6 24.41 C137.21 36.89, 136.91 48.11, 135.6 73.24 M135.6 24.41 C136.37 39.91, 136.78 55.46, 135.6 73.24 M135.6 73.24 C133.95 88.51, 127.55 99.3, 111.18 97.66 M135.6 73.24 C137.15 87.44, 125.6 96.42, 111.18 97.66 M111.18 97.66 C85.92 98.69, 58.85 96.93, 24.41 97.66 M111.18 97.66 C90.71 97.55, 69 96.47, 24.41 97.66 M24.41 97.66 C6.7 97.31, 1.47 89.14, 0 73.24 M24.41 97.66 C7.14 97.36, 0.77 90.15, 0 73.24 M0 73.24 C0.88 60.48, 0.52 44.01, 0 24.41 M0 73.24 C0.91 58.06, -0.77 41.57, 0 24.41 M0 24.41 C-1.53 7.54, 8.92 -0.84, 24.41 0 M0 24.41 C-1.2 7.16, 7.03 -1, 24.41 0" stroke="#1971c2" stroke-width="1" fill="none"></path></g><g transform="translate(227.48267206678588 135.87848696044057) rotate(0 32.8125 9.599999999999994)"><text x="32.8125" y="0" font-family="Cascadia, Segoe UI Emoji" font-size="16px" fill="#1971c2" text-anchor="middle" style="white-space: pre;" direction="ltr" dominant-baseline="text-before-edge">Balance</text></g><g stroke-linecap="round" transform="translate(10 10) rotate(0 253.24570303199846 176.86207532715767)"><path d="M32 0 M32 0 C138.93 -0.27, 247.26 0.74, 474.49 0 M32 0 C190.14 0.45, 348.84 0.94, 474.49 0 M474.49 0 C495.44 -0.33, 506.77 9.16, 506.49 32 M474.49 0 C494.65 0.93, 505.33 9.41, 506.49 32 M506.49 32 C508.85 103.44, 507.16 173.06, 506.49 321.72 M506.49 32 C506.45 96.46, 506.32 160.75, 506.49 321.72 M506.49 321.72 C505.97 342.23, 494.02 353.61, 474.49 353.72 M506.49 321.72 C508.44 343.63, 497.82 355.99, 474.49 353.72 M474.49 353.72 C308.27 351.65, 140.8 351.1, 32 353.72 M474.49 353.72 C353.92 355.82, 233.56 355.19, 32 353.72 M32 353.72 C10.67 353.24, 1.03 342.2, 0 321.72 M32 353.72 C9.86 352.62, -0.95 345.12, 0 321.72 M0 321.72 C-0.62 256.18, -2.57 188.38, 0 32 M0 321.72 C1.95 254.28, 1.33 187.95, 0 32 M0 32 C-1.72 11.68, 9.17 1.8, 32 0 M0 32 C1.04 10.14, 11.18 1.53, 32 0" stroke="#1e1e1e" stroke-width="1" fill="none"></path></g><g transform="translate(206.99570303199812 15) rotate(0 56.25 9.599999999999994)"><text x="56.25" y="0" font-family="Cascadia, Segoe UI Emoji" font-size="16px" fill="#1e1e1e" text-anchor="middle" style="white-space: pre;" direction="ltr" dominant-baseline="text-before-edge">Demo Website</text></g><g stroke-linecap="round" transform="translate(31.726950931499232 36.31356331790357) rotate(0 62.35437079243172 152.31349437854712)"><path d="M31.18 0 M31.18 0 C43.18 1.75, 58.68 0.12, 93.53 0 M31.18 0 C50.69 -0.85, 69.49 0.22, 93.53 0 M93.53 0 C113.16 -0.57, 123.55 9.21, 124.71 31.18 M93.53 0 C114.79 0.96, 124.27 11.52, 124.71 31.18 M124.71 31.18 C125.51 94.5, 124.21 159.27, 124.71 273.45 M124.71 31.18 C125.33 110.79, 126.02 190.51, 124.71 273.45 M124.71 273.45 C124.92 295.2, 113.45 302.86, 93.53 304.63 M124.71 273.45 C125.53 292.92, 112.8 305.56, 93.53 304.63 M93.53 304.63 C77.06 305.05, 57.95 305.98, 31.18 304.63 M93.53 304.63 C75.17 303.75, 58.95 305, 31.18 304.63 M31.18 304.63 C10.72 304.4, -0.56 295.36, 0 273.45 M31.18 304.63 C9.36 305.17, 0.9 295.61, 0 273.45 M0 273.45 C1.07 210.94, 1.37 147.36, 0 31.18 M0 273.45 C-1.29 196.71, -0.34 120.99, 0 31.18 M0 31.18 C-1.98 12.19, 9.35 1.99, 31.18 0 M0 31.18 C-0.21 9.29, 12.57 -1.51, 31.18 0" stroke="#1e1e1e" stroke-width="1" fill="none"></path></g><g transform="translate(75.33132172393084 179.0270576964507) rotate(0 18.75 9.599999999999994)"><text x="18.75" y="0" font-family="Cascadia, Segoe UI Emoji" font-size="16px" fill="#1e1e1e" text-anchor="middle" style="white-space: pre;" direction="ltr" dominant-baseline="text-before-edge">HTML</text></g><g stroke-linecap="round" transform="translate(192.42117415069038 50.56942648152091) rotate(0 146.81321114040497 29.197681561535546)"><path d="M14.6 0 M14.6 0 C94.73 -1.91, 172.72 -1.69, 279.03 0 M14.6 0 C89.41 0.4, 162.42 -0.19, 279.03 0 M279.03 0 C290.04 -0.6, 293.81 3.97, 293.63 14.6 M279.03 0 C287.46 0.3, 292.56 3.14, 293.63 14.6 M293.63 14.6 C294.96 22.83, 295.15 30.64, 293.63 43.8 M293.63 14.6 C294.51 23.67, 293.28 33.11, 293.63 43.8 M293.63 43.8 C294.5 53.32, 287.79 56.91, 279.03 58.4 M293.63 43.8 C291.74 51.66, 289 56.74, 279.03 58.4 M279.03 58.4 C217.35 57.76, 153.89 57.71, 14.6 58.4 M279.03 58.4 C199.47 59.52, 119.75 59.27, 14.6 58.4 M14.6 58.4 C4.61 58.85, -1.56 55, 0 43.8 M14.6 58.4 C4.66 57.15, 1.06 54.06, 0 43.8 M0 43.8 C1.58 31.57, -1.59 22.75, 0 14.6 M0 43.8 C-0.44 34.16, 0.46 24.34, 0 14.6 M0 14.6 C1.15 6.81, 5.33 1.65, 14.6 0 M0 14.6 C-1.4 6, 3.59 -1.11, 14.6 0" stroke="#1e1e1e" stroke-width="1" fill="none"></path></g><g transform="translate(320.4843852910956 70.16710804305643) rotate(0 18.75 9.599999999999994)"><text x="18.75" y="0" font-family="Cascadia, Segoe UI Emoji" font-size="16px" fill="#1e1e1e" text-anchor="middle" style="white-space: pre;" direction="ltr" dominant-baseline="text-before-edge">HTML</text></g><g stroke-linecap="round" transform="translate(192.5810197980902 243.01068940890622) rotate(0 141.0396482209767 48.82777132372638)"><path d="M24.41 0 M24.41 0 C117 1.21, 208.15 -0.54, 257.67 0 M24.41 0 C101.12 -1.27, 179.41 -0.52, 257.67 0 M257.67 0 C275.61 0.49, 283.45 10.06, 282.08 24.41 M257.67 0 C273.68 -0.55, 280.88 7.88, 282.08 24.41 M282.08 24.41 C283.72 32.99, 281.36 43.86, 282.08 73.24 M282.08 24.41 C280.82 35.55, 281.76 45.89, 282.08 73.24 M282.08 73.24 C281.51 88.62, 275.1 97.88, 257.67 97.66 M282.08 73.24 C283.53 89.52, 274.32 97.16, 257.67 97.66 M257.67 97.66 C181.98 96.97, 109.8 96.7, 24.41 97.66 M257.67 97.66 C182.02 97.74, 105.78 98.3, 24.41 97.66 M24.41 97.66 C7.23 99.57, -0.6 89.96, 0 73.24 M24.41 97.66 C9.87 95.44, 0.65 88.99, 0 73.24 M0 73.24 C-1.18 58.63, -0.95 48.56, 0 24.41 M0 73.24 C0.18 61.25, 0.04 49.51, 0 24.41 M0 24.41 C-0.82 6.92, 9.43 -0.32, 24.41 0 M0 24.41 C-1.09 6.28, 8.42 -2.07, 24.41 0" stroke="#1971c2" stroke-width="1" fill="none"></path></g><g transform="translate(272.6831680190669 248.01068940890622) rotate(0 60.9375 9.600000000000023)"><text x="60.9375" y="0" font-family="Cascadia, Segoe UI Emoji" font-size="16px" fill="#1971c2" text-anchor="middle" style="white-space: pre;" direction="ltr" dominant-baseline="text-before-edge">History Graph</text></g><g stroke-linecap="round" transform="translate(224.32900056810308 285.28986434844404) rotate(0 105.88424245656279 5.7037096739402955)"><path d="M2.85 0 M2.85 0 C55.02 0.24, 107.07 3.3, 208.92 0 M2.85 0 C83.72 -0.85, 165.61 -1.01, 208.92 0 M208.92 0 C212.37 0.9, 210.35 1.83, 211.77 2.85 M208.92 0 C213.07 2.08, 210.33 2.93, 211.77 2.85 M211.77 2.85 C212.25 4.4, 211.84 6.41, 211.77 8.56 M211.77 2.85 C211.82 4.21, 211.49 4.93, 211.77 8.56 M211.77 8.56 C212.38 11.53, 210.97 12.51, 208.92 11.41 M211.77 8.56 C210.96 8.8, 209.75 11.26, 208.92 11.41 M208.92 11.41 C133.19 12.99, 53.13 11.9, 2.85 11.41 M208.92 11.41 C164.21 11.96, 119.19 13.1, 2.85 11.41 M2.85 11.41 C2.79 10.99, 0.28 10.77, 0 8.56 M2.85 11.41 C0.92 10.65, -1.31 9.89, 0 8.56 M0 8.56 C0.38 7.12, -0.24 5.65, 0 2.85 M0 8.56 C0.2 6.15, -0.14 4.33, 0 2.85 M0 2.85 C0.58 -0.57, -0.71 -1.89, 2.85 0 M0 2.85 C2.01 0.9, -0.7 1.58, 2.85 0" stroke="#1e1e1e" stroke-width="1" fill="none"></path></g><g stroke-linecap="round" transform="translate(224.32900056810308 297.501650777734) rotate(0 105.88424245656279 5.7037096739402955)"><path d="M2.85 0 M2.85 0 C53.36 2.11, 102.6 1.12, 208.92 0 M2.85 0 C74.66 0.96, 148.03 0.52, 208.92 0 M208.92 0 C211.01 0.23, 210.95 2.93, 211.77 2.85 M208.92 0 C211.24 -0.47, 212.03 0.53, 211.77 2.85 M211.77 2.85 C212.32 4.96, 212.12 5.61, 211.77 8.56 M211.77 2.85 C211.85 4.29, 211.73 6.04, 211.77 8.56 M211.77 8.56 C212.79 8.98, 210.57 10.07, 208.92 11.41 M211.77 8.56 C211.55 11.8, 212.19 9.42, 208.92 11.41 M208.92 11.41 C145.43 12.82, 77.58 10.6, 2.85 11.41 M208.92 11.41 C165.1 11.35, 121.16 10.08, 2.85 11.41 M2.85 11.41 C-0.75 10.7, -1.53 11.33, 0 8.56 M2.85 11.41 C3.09 9.44, 0.03 8.59, 0 8.56 M0 8.56 C0.23 6.87, -0.36 5.81, 0 2.85 M0 8.56 C0.29 6.63, 0.15 4.14, 0 2.85 M0 2.85 C0.24 -0.87, 0.18 -1.52, 2.85 0 M0 2.85 C0.88 0.25, -1.33 1.46, 2.85 0" stroke="#1e1e1e" stroke-width="1" fill="none"></path></g><g stroke-linecap="round" transform="translate(224.32900056810308 309.713437207024) rotate(0 105.88424245656279 5.7037096739402955)"><path d="M2.85 0 M2.85 0 C42.62 1.78, 85.88 0.21, 208.92 0 M2.85 0 C46.45 -1.61, 89.95 -1.65, 208.92 0 M208.92 0 C209.21 -1.19, 213 -0.4, 211.77 2.85 M208.92 0 C210.39 -1.54, 209.5 2.81, 211.77 2.85 M211.77 2.85 C211.23 4.15, 212.17 6.11, 211.77 8.56 M211.77 2.85 C211.81 5.03, 211.92 7.47, 211.77 8.56 M211.77 8.56 C211.79 12.33, 209.78 13.24, 208.92 11.41 M211.77 8.56 C209.66 12.32, 210.4 12.13, 208.92 11.41 M208.92 11.41 C125.61 12.29, 45.16 11.43, 2.85 11.41 M208.92 11.41 C165.41 11.29, 123.71 11.38, 2.85 11.41 M2.85 11.41 C1.24 10.27, 1.64 8.76, 0 8.56 M2.85 11.41 C0.26 9.69, -0.94 8.64, 0 8.56 M0 8.56 C0.53 7.04, 0.41 5.02, 0 2.85 M0 8.56 C0.24 6.69, -0.23 5.63, 0 2.85 M0 2.85 C1.88 2.89, 2.13 1.88, 2.85 0 M0 2.85 C1.33 -0.04, -0.08 1.28, 2.85 0" stroke="#1e1e1e" stroke-width="1" fill="none"></path></g><g stroke-linecap="round" transform="translate(212.24625757284934 273.58612045928004) rotate(0 120.65450205431603 27.129784374972758)"><path d="M13.56 0 M13.56 0 C64.61 0.62, 114.77 1.47, 227.74 0 M13.56 0 C87.34 -0.64, 161.83 -1.78, 227.74 0 M227.74 0 C238.33 -1.38, 241.86 3.18, 241.31 13.56 M227.74 0 C236.07 0.47, 243.09 6.41, 241.31 13.56 M241.31 13.56 C243.37 22.61, 239.54 36.6, 241.31 40.69 M241.31 13.56 C241.85 20.1, 241.97 27.07, 241.31 40.69 M241.31 40.69 C240.21 51.56, 236.34 54.04, 227.74 54.26 M241.31 40.69 C240.08 51.59, 236.5 52.01, 227.74 54.26 M227.74 54.26 C182.76 56.17, 138.38 56, 13.56 54.26 M227.74 54.26 C149.75 52.19, 70.76 52.77, 13.56 54.26 M13.56 54.26 C5.53 55.8, -0.81 50.51, 0 40.69 M13.56 54.26 C4.88 53.61, 0.38 49.94, 0 40.69 M0 40.69 C1.14 31.16, 2.2 20.87, 0 13.56 M0 40.69 C0.32 35.4, -0.52 29.72, 0 13.56 M0 13.56 C-1.09 5.28, 4.88 -0.33, 13.56 0 M0 13.56 C-1.21 6.01, 4.48 1.29, 13.56 0" stroke="#2f9e44" stroke-width="1" fill="none"></path></g></svg>