<svg version="1.1" xmlns="http://www.w3.org/2000/svg" viewBox="0 0 1232.6669311523438 1079.9168090820312" width="1232.6669311523438" height="1079.9168090820312" filter="invert(93%) hue-rotate(180deg)">
  <!-- svg-source:excalidraw -->
  
  <defs>
    <style class="style-fonts">
      @font-face {
        font-family: "Virgil";
        src: url("https://excalidraw.com/Virgil.woff2");
      }
      @font-face {
        font-family: "Cascadia";
        src: url("https://excalidraw.com/Cascadia.woff2");
      }
    </style>
    
  </defs>
  <g stroke-linecap="round" transform="translate(474.00006103515625 10) rotate(0 100.33331298828125 49)"><path d="M5.87 6.42 C5.87 6.42, 5.87 6.42, 5.87 6.42 M5.87 6.42 C5.87 6.42, 5.87 6.42, 5.87 6.42 M0.36 18.86 C5.69 14.61, 8.5 10.85, 14.79 2.26 M0.36 18.86 C6.12 13.74, 10.02 6.56, 14.79 2.26 M0.09 25.26 C5.72 21.4, 9.27 15.17, 21.09 1.11 M0.09 25.26 C6.35 19.02, 12.31 13.08, 21.09 1.11 M0.49 30.9 C7.59 21.83, 17.28 12.45, 26.07 1.47 M0.49 30.9 C8.41 21.66, 15.43 12.6, 26.07 1.47 M0.23 37.3 C8.26 29.24, 14.24 23.1, 31.72 1.07 M0.23 37.3 C7.66 28.24, 14.95 18.27, 31.72 1.07 M0.62 42.94 C7.84 32.31, 17.64 21.57, 36.7 1.43 M0.62 42.94 C13.36 26.61, 27.31 10.85, 36.7 1.43 M0.36 49.34 C15.43 33.8, 31.11 14.74, 42.35 1.04 M0.36 49.34 C14.63 31.95, 29.78 15.19, 42.35 1.04 M0.1 55.74 C15.79 37.33, 35.43 15.71, 47.34 1.4 M0.1 55.74 C12.72 40.3, 24.73 27, 47.34 1.4 M0.49 61.38 C15.61 41.66, 33.86 25.36, 52.32 1.76 M0.49 61.38 C13.74 46.86, 26.84 30.43, 52.32 1.76 M0.23 67.78 C20.47 45.21, 41.65 19.63, 57.97 1.36 M0.23 67.78 C14.99 49.7, 32.06 30.19, 57.97 1.36 M0.63 73.42 C17.6 54.63, 29.47 38.7, 62.95 1.72 M0.63 73.42 C14.71 55.21, 30.16 38.15, 62.95 1.72 M0.37 79.82 C14.45 59.97, 34.1 45.09, 68.6 1.33 M0.37 79.82 C22.42 52.19, 46.4 26.8, 68.6 1.33 M2.07 83.95 C19.11 64.54, 37.69 43.76, 73.58 1.69 M2.07 83.95 C21.04 61.17, 41.44 38.14, 73.58 1.69 M3.78 88.09 C28.46 60.75, 51.64 32.35, 79.23 1.29 M3.78 88.09 C18.11 70.12, 34.78 51.76, 79.23 1.29 M6.14 91.46 C32.69 63.59, 58.67 29.63, 84.21 1.65 M6.14 91.46 C25.52 70.36, 43.26 49.25, 84.21 1.65 M9.16 94.09 C34.91 65.43, 56.6 37.3, 89.86 1.26 M9.16 94.09 C30.92 70.52, 50.67 47.21, 89.86 1.26 M12.18 96.71 C35.25 68.76, 59.5 41.93, 94.84 1.62 M12.18 96.71 C40.36 64.92, 67.15 35.6, 94.84 1.62 M16.51 97.83 C47.85 64.14, 75.84 27.59, 100.49 1.22 M16.51 97.83 C40.45 72.49, 63.55 44.25, 100.49 1.22 M20.84 98.94 C51.9 66.43, 82.64 31.49, 105.47 1.58 M20.84 98.94 C45.84 72.54, 69.66 43.59, 105.47 1.58 M25.83 99.3 C59.73 61.93, 91.83 23.73, 111.12 1.19 M25.83 99.3 C52.6 69.57, 77.97 41.4, 111.12 1.19 M31.47 98.91 C63.08 61.85, 94.51 23.83, 116.1 1.55 M31.47 98.91 C62.89 61.69, 93.82 26.19, 116.1 1.55 M36.46 99.27 C58.92 72.01, 82.44 47.89, 121.75 1.16 M36.46 99.27 C66.28 63.77, 96.78 29.93, 121.75 1.16 M42.1 98.87 C62.75 75.47, 83.53 50.82, 126.73 1.52 M42.1 98.87 C72.68 63.44, 102.43 29.35, 126.73 1.52 M47.09 99.23 C77.92 64.07, 109.15 32.41, 132.38 1.12 M47.09 99.23 C71.68 70.52, 96.25 42.69, 132.38 1.12 M52.08 99.59 C74.2 73.72, 97.28 47.04, 137.36 1.48 M52.08 99.59 C79.59 66.18, 107.33 34.46, 137.36 1.48 M57.72 99.2 C88 65.37, 120.44 31.64, 143.01 1.09 M57.72 99.2 C75.93 77.84, 93.1 56.75, 143.01 1.09 M62.71 99.56 C81.99 78.75, 97.64 57.19, 147.99 1.45 M62.71 99.56 C89.57 69.13, 117.66 37.13, 147.99 1.45 M68.35 99.16 C93.61 71.01, 119.98 41.56, 153.64 1.05 M68.35 99.16 C86.97 79.62, 105.76 57.94, 153.64 1.05 M73.34 99.52 C91.82 80.61, 110.51 61.39, 158.62 1.41 M73.34 99.52 C95.65 72.26, 118.69 45.56, 158.62 1.41 M78.98 99.13 C111.13 66.1, 140.02 29.89, 163.61 1.77 M78.98 99.13 C98.51 77.44, 116.05 54.4, 163.61 1.77 M83.97 99.49 C107.4 69.69, 131.03 43.13, 169.25 1.38 M83.97 99.49 C104.74 75.25, 126.68 53.01, 169.25 1.38 M89.61 99.1 C106.66 79.44, 125.13 59.4, 174.24 1.74 M89.61 99.1 C107.41 78.51, 124.31 58.25, 174.24 1.74 M94.6 99.46 C115.86 76.84, 136.9 49.45, 179.23 2.1 M94.6 99.46 C111.97 77.23, 130.33 57, 179.23 2.1 M100.24 99.06 C124.33 74.62, 144.61 47.8, 183.56 3.21 M100.24 99.06 C125.64 70.27, 152.93 40.15, 183.56 3.21 M105.23 99.42 C138.73 64.54, 166.4 27.36, 187.89 4.33 M105.23 99.42 C129.48 70.06, 156.53 41.08, 187.89 4.33 M110.87 99.03 C131.43 73.38, 156.89 49.38, 192.88 4.69 M110.87 99.03 C139.05 65.77, 166.04 35.2, 192.88 4.69 M115.86 99.39 C142.07 66.25, 168.58 35.85, 195.24 8.07 M115.86 99.39 C143.17 70.11, 169.56 39.19, 195.24 8.07 M121.5 98.99 C144.64 73.61, 170.01 46.47, 198.26 10.69 M121.5 98.99 C145.77 71.79, 168.53 45.15, 198.26 10.69 M126.49 99.35 C144.08 76.97, 162.92 59.67, 199.96 14.82 M126.49 99.35 C146.93 77.86, 165.74 55.65, 199.96 14.82 M132.13 98.96 C156.73 70.25, 180.93 42.37, 201.02 19.71 M132.13 98.96 C150.89 79.04, 167.12 60.19, 201.02 19.71 M137.12 99.32 C150.86 80.69, 167.62 65.6, 201.41 25.36 M137.12 99.32 C157.8 73.28, 181.13 48.18, 201.41 25.36 M142.76 98.92 C163 74.87, 186.24 48.63, 201.15 31.75 M142.76 98.92 C155.42 84.1, 169.74 67.05, 201.15 31.75 M147.75 99.28 C163.62 83.04, 176 64.18, 201.54 37.4 M147.75 99.28 C168.77 74.4, 189.42 50.12, 201.54 37.4 M153.39 98.89 C171.29 78.71, 191.27 54.77, 201.28 43.79 M153.39 98.89 C168.62 80.75, 184.72 63.66, 201.28 43.79 M158.38 99.25 C176.23 82.65, 189.92 62.79, 201.68 49.44 M158.38 99.25 C171.67 84.24, 185.45 67.54, 201.68 49.44 M164.02 98.85 C174.18 88.21, 178.79 78.78, 201.41 55.84 M164.02 98.85 C173.52 89.3, 180.88 78.53, 201.41 55.84 M169.01 99.21 C179.35 85.69, 192.06 73.22, 201.15 62.23 M169.01 99.21 C180.39 86.3, 190.61 74.47, 201.15 62.23 M173.99 99.57 C181.12 87.76, 191.29 77.47, 201.55 67.88 M173.99 99.57 C181.23 90.4, 189.45 81.69, 201.55 67.88 M178.98 99.93 C183.78 94.88, 188.59 90.44, 201.29 74.27 M178.98 99.93 C185.22 93.68, 189.91 88.27, 201.29 74.27 M185.28 98.79 C186.73 95.78, 190.01 90.06, 199.71 82.18 M185.28 98.79 C188.2 95.16, 191.8 90.56, 199.71 82.18 M9.38 94.39 C9.38 94.39, 9.38 94.39, 9.38 94.39 M9.38 94.39 C9.38 94.39, 9.38 94.39, 9.38 94.39 M18.04 96.62 C12.02 92.39, 10.03 88.12, 5.96 86.12 M18.04 96.62 C15.61 94.09, 13.16 91.77, 5.96 86.12 M25.19 97.53 C18.63 89.49, 11.95 85.06, 1.8 77.2 M25.19 97.53 C17.16 91.3, 10.73 83.96, 1.8 77.2 M30.83 97.14 C21.33 87.37, 10.85 78.3, 2.16 72.21 M30.83 97.14 C23.54 91.5, 16.48 85.35, 2.16 72.21 M37.23 97.4 C23.81 86.67, 11.56 76.78, 1.76 66.57 M37.23 97.4 C29.37 89.55, 21.39 82.46, 1.76 66.57 M43.63 97.66 C33.95 91.54, 25.28 83.59, 2.12 61.58 M43.63 97.66 C29.48 85.79, 15 73.26, 2.12 61.58 M49.27 97.27 C41.05 88.67, 30.81 80.04, 1.73 55.94 M49.27 97.27 C36.43 86.33, 23.89 75.05, 1.73 55.94 M55.67 97.53 C40.08 87.42, 28.49 76.04, 2.09 50.95 M55.67 97.53 C38.27 81.85, 20.4 67.14, 2.09 50.95 M61.31 97.13 C45.67 80.53, 28 66.48, 1.69 45.31 M61.31 97.13 C49.47 85.7, 36.29 75.31, 1.69 45.31 M67.71 97.4 C46.62 79.59, 20.49 56.7, 2.05 40.32 M67.71 97.4 C52.28 83.95, 34.68 69.67, 2.05 40.32 M74.11 97.66 C47.71 75.6, 19.93 53, 1.66 34.68 M74.11 97.66 C48.6 75.34, 24.04 54.39, 1.66 34.68 M79.75 97.26 C53.69 74.59, 28.14 52.71, 2.02 29.69 M79.75 97.26 C48.39 69.47, 17.66 42.49, 2.02 29.69 M86.15 97.52 C61.19 72.66, 32.86 50.32, 2.38 24.7 M86.15 97.52 C61.48 77.09, 36.97 54.64, 2.38 24.7 M91.79 97.13 C63.84 70.64, 34.19 47.01, 1.23 18.4 M91.79 97.13 C67.75 75.58, 42.69 54.95, 1.23 18.4 M98.19 97.39 C75.16 75.82, 53.64 58.34, 1.59 13.42 M98.19 97.39 C62.61 66.05, 26.4 35.16, 1.59 13.42 M104.59 97.65 C82.65 79.77, 64.66 61.68, 3.46 9.74 M104.59 97.65 C65.52 65.13, 27.29 30.56, 3.46 9.74 M110.23 97.26 C68.46 61.95, 27.88 25.86, 6.08 6.72 M110.23 97.26 C84.15 74.78, 56.41 49.81, 6.08 6.72 M116.63 97.52 C77.44 63.82, 35.73 28.03, 8.71 3.7 M116.63 97.52 C84.6 70.77, 55.4 46.07, 8.71 3.7 M122.27 97.12 C84.42 65.79, 49.67 33.92, 12.09 1.34 M122.27 97.12 C85.75 65.82, 50.83 36.14, 12.09 1.34 M128.67 97.39 C90.48 64.04, 52.62 31.41, 15.46 -1.02 M128.67 97.39 C91.5 63.5, 53.99 30.73, 15.46 -1.02 M135.07 97.65 C111.47 74.5, 84.29 53.89, 21.11 -1.42 M135.07 97.65 C104.9 73.24, 76.72 47.44, 21.11 -1.42 M140.71 97.25 C100.98 61.69, 61.64 26.91, 26 -2.47 M140.71 97.25 C104.94 65.13, 68.82 33.07, 26 -2.47 M147.11 97.51 C116.69 74.98, 90.59 48.71, 32.39 -2.21 M147.11 97.51 C112.28 67.47, 77.2 37.59, 32.39 -2.21 M152.75 97.12 C108.59 56.89, 62.75 18.17, 38.79 -1.95 M152.75 97.12 C123.66 70.93, 93.88 46.56, 38.79 -1.95 M159.15 97.38 C131.5 73.83, 103.48 51.32, 44.43 -2.34 M159.15 97.38 C115.58 58.93, 71.47 21.58, 44.43 -2.34 M165.55 97.64 C120.44 59.25, 80.97 22.91, 50.83 -2.08 M165.55 97.64 C123.86 61.46, 83.37 24.12, 50.83 -2.08 M171.19 97.25 C145.44 77.62, 124.66 54.57, 56.48 -2.47 M171.19 97.25 C128.42 58.4, 83.25 20.08, 56.48 -2.47 M176.83 96.85 C141.71 66.37, 101.18 34.24, 62.87 -2.21 M176.83 96.85 C141.97 67.88, 108.88 37.54, 62.87 -2.21 M181.72 95.8 C152.29 68.6, 119.63 42.89, 69.27 -1.95 M181.72 95.8 C148.78 68.52, 116.53 41.24, 69.27 -1.95 M186.61 94.75 C165.72 74.51, 141.13 55.77, 74.91 -2.34 M186.61 94.75 C149.67 63.17, 112.27 28.87, 74.91 -2.34 M191.5 93.7 C158.92 63.48, 127.59 37.35, 81.31 -2.08 M191.5 93.7 C148.13 57.42, 106.01 18.91, 81.31 -2.08 M194.88 91.34 C163.15 61.26, 129.88 35.11, 87.71 -1.82 M194.88 91.34 C153.39 56.54, 112.84 21.34, 87.71 -1.82 M197.5 88.32 C176.11 67.01, 151.1 46.83, 93.35 -2.22 M197.5 88.32 C161.41 57.81, 127.05 26.44, 93.35 -2.22 M198.62 83.99 C175.16 61.48, 147.49 39.93, 99.75 -1.95 M198.62 83.99 C165.94 56.98, 133.86 27.99, 99.75 -1.95 M199.73 79.66 C178.34 62.25, 156.75 42.24, 105.39 -2.35 M199.73 79.66 C171.24 56.23, 145.34 31.56, 105.39 -2.35 M200.09 74.67 C165.97 45.64, 129.48 16.02, 111.79 -2.09 M200.09 74.67 C168.53 48.27, 139.78 20.65, 111.79 -2.09 M202.72 71.65 C181.57 50.65, 157.94 31.62, 118.19 -1.83 M202.72 71.65 C177.5 48.93, 150.73 25.32, 118.19 -1.83 M202.32 66.01 C172.92 39.11, 143.93 15.01, 123.83 -2.22 M202.32 66.01 C174.28 40.42, 144.85 14.74, 123.83 -2.22 M202.68 61.02 C178.31 39.81, 149.84 14.56, 130.23 -1.96 M202.68 61.02 C174.33 35.94, 145.56 11.31, 130.23 -1.96 M202.29 55.38 C183.66 42.73, 169.57 28.68, 135.87 -2.35 M202.29 55.38 C189.11 43.29, 175.55 31.38, 135.87 -2.35 M202.65 50.39 C181.97 29.96, 160.67 14.06, 142.27 -2.09 M202.65 50.39 C185.95 36.11, 170.82 22.48, 142.27 -2.09 M202.25 44.75 C186.69 32.14, 167.95 16.24, 148.67 -1.83 M202.25 44.75 C190.01 33.35, 176.55 23.37, 148.67 -1.83 M202.61 39.76 C186.08 24.21, 170.63 10.19, 154.31 -2.23 M202.61 39.76 C185.34 23.54, 165.51 8.51, 154.31 -2.23 M202.22 34.12 C194.13 27.2, 182.76 17.81, 160.71 -1.96 M202.22 34.12 C189.09 23.39, 176.94 11.38, 160.71 -1.96 M201.82 28.48 C188.71 18.3, 173.09 4.03, 166.35 -2.36 M201.82 28.48 C192.03 20.8, 181.53 10.94, 166.35 -2.36 M202.18 23.49 C190.88 11.75, 179.05 2.97, 172.75 -2.1 M202.18 23.49 C193.55 16.12, 187.23 9.44, 172.75 -2.1 M201.03 17.19 C193.95 14.18, 190.42 8.05, 178.39 -2.49 M201.03 17.19 C196.11 13.19, 189.34 7.14, 178.39 -2.49" stroke="#a5d8ff" stroke-width="0.5" fill="none"></path><path d="M24.5 0 M24.5 0 C71.84 -1.83, 121.09 -2.16, 176.17 0 M24.5 0 C80.07 -1.5, 136.67 -0.35, 176.17 0 M176.17 0 C191.61 1.46, 202.41 7.63, 200.67 24.5 M176.17 0 C193.65 -1.07, 201.63 8.71, 200.67 24.5 M200.67 24.5 C200.65 41.65, 199.62 58.52, 200.67 73.5 M200.67 24.5 C199.42 37.42, 200.47 51.42, 200.67 73.5 M200.67 73.5 C201.61 90.97, 191.6 99.9, 176.17 98 M200.67 73.5 C199.59 88.93, 194.76 97.77, 176.17 98 M176.17 98 C127.66 100.91, 76.37 100.54, 24.5 98 M176.17 98 C127.21 98.17, 79.61 99.08, 24.5 98 M24.5 98 C7.73 98.97, -0.86 90.72, 0 73.5 M24.5 98 C10.03 96.8, 1.31 88.21, 0 73.5 M0 73.5 C-1.02 61.12, -1.66 48.19, 0 24.5 M0 73.5 C0 61.98, 1.01 49.63, 0 24.5 M0 24.5 C0.78 7.5, 7.66 1.17, 24.5 0 M0 24.5 C0.8 9.13, 7.49 0.61, 24.5 0" stroke="#1971c2" stroke-width="1" fill="none"></path></g><g transform="translate(513.9234008789062 24) rotate(0 60.40997314453125 35)"><text x="60.40997314453125" y="0" font-family="Virgil, Segoe UI Emoji" font-size="28px" fill="#1971c2" text-anchor="middle" style="white-space: pre;" direction="ltr" dominant-baseline="text-before-edge">Scoring</text><text x="60.40997314453125" y="35" font-family="Virgil, Segoe UI Emoji" font-size="28px" fill="#1971c2" text-anchor="middle" style="white-space: pre;" direction="ltr" dominant-baseline="text-before-edge">Algorithm</text></g><g stroke-linecap="round" transform="translate(125.33343505859375 399.8334197998047) rotate(0 145 114)"><path d="M32 0 M32 0 C102.12 -0.87, 172.72 1.57, 258 0 M32 0 C119.71 0.89, 207.92 1.37, 258 0 M258 0 C279.7 0.39, 288.71 10.01, 290 32 M258 0 C279.94 0.32, 291.89 10.58, 290 32 M290 32 C289.53 74.67, 292.21 114.57, 290 196 M290 32 C289.99 81.19, 289.33 130.45, 290 196 M290 196 C291.93 216.88, 279.85 228.78, 258 228 M290 196 C288.54 217.46, 278.51 226.91, 258 228 M258 228 C170.18 228.04, 84.87 227.79, 32 228 M258 228 C184.04 226.52, 110.41 228.1, 32 228 M32 228 C9.77 229.61, 0.51 215.56, 0 196 M32 228 C11.61 228.55, 1.73 218.27, 0 196 M0 196 C3.24 143.11, 2.6 90.53, 0 32 M0 196 C1.12 161.13, -0.4 126.6, 0 32 M0 32 C-0.4 8.85, 12.59 1.94, 32 0 M0 32 C0.21 12.59, 8.94 -1.28, 32 0" stroke="#1e1e1e" stroke-width="1" fill="none"></path></g><g transform="translate(242.93544006347656 404.8334197998047) rotate(0 27.397994995117188 17.5)"><text x="27.397994995117188" y="0" font-family="Virgil, Segoe UI Emoji" font-size="28px" fill="#1e1e1e" text-anchor="middle" style="white-space: pre;" direction="ltr" dominant-baseline="text-before-edge">EVM</text></g><g stroke-linecap="round" transform="translate(186.00006103515625 486.6667785644531) rotate(0 78.00006103515625 29)"><path d="M2 5.71 C2 5.71, 2 5.71, 2 5.71 M2 5.71 C2 5.71, 2 5.71, 2 5.71 M1.74 12.11 C4.54 10.3, 5.56 6.46, 8.3 4.56 M1.74 12.11 C3.32 10.33, 5.14 8, 8.3 4.56 M1.47 18.51 C5.16 15.85, 5.78 12.46, 16.56 1.15 M1.47 18.51 C8.11 11.93, 12.21 4.8, 16.56 1.15 M1.87 24.15 C7.44 17.67, 13.4 11.21, 21.55 1.51 M1.87 24.15 C5.99 19.35, 11.47 13.29, 21.55 1.51 M1.61 30.55 C5.98 24.74, 12.92 16.75, 26.54 1.87 M1.61 30.55 C7.13 24.8, 12.6 18.15, 26.54 1.87 M1.35 36.95 C6.51 27.11, 14.21 20.86, 32.18 1.47 M1.35 36.95 C9.11 27.78, 17.43 16.63, 32.18 1.47 M1.74 42.59 C15.83 26.49, 27.78 13.42, 37.17 1.83 M1.74 42.59 C14.96 25.82, 30.18 10.37, 37.17 1.83 M2.14 48.23 C15.92 32.25, 29.08 18.8, 42.81 1.44 M2.14 48.23 C15.27 32.33, 29.29 16.32, 42.81 1.44 M3.84 52.37 C18.11 33.61, 36.5 18.23, 47.8 1.8 M3.84 52.37 C14.46 41.26, 23.63 28.93, 47.8 1.8 M5.55 56.5 C18.35 39.88, 31.11 27.57, 53.44 1.41 M5.55 56.5 C25.5 34.3, 42.33 13.59, 53.44 1.41 M9.22 58.37 C21.99 44.62, 29.76 32.86, 58.43 1.77 M9.22 58.37 C21.75 43.67, 33.71 30.76, 58.43 1.77 M14.87 57.97 C26.68 44.42, 34.77 36.22, 63.42 2.13 M14.87 57.97 C27.96 42.51, 41.27 27.83, 63.42 2.13 M19.85 58.33 C39.94 35.74, 55.62 15.53, 69.06 1.73 M19.85 58.33 C38.05 36.31, 58.06 14.6, 69.06 1.73 M25.5 57.94 C36.25 44.15, 49.34 32.3, 74.05 2.09 M25.5 57.94 C44.1 37.03, 60.87 18.5, 74.05 2.09 M30.48 58.3 C49.49 36.7, 68.47 14.9, 79.69 1.7 M30.48 58.3 C41.08 46.14, 50.68 33.9, 79.69 1.7 M35.47 58.66 C49.93 41.66, 67.74 21.09, 84.68 2.06 M35.47 58.66 C53.62 38.36, 70.8 18.03, 84.68 2.06 M41.11 58.27 C51.04 43.86, 63.69 32.46, 90.32 1.66 M41.11 58.27 C56.43 41.26, 71.54 25.81, 90.32 1.66 M46.1 58.63 C59.66 44.33, 72.7 25.27, 95.31 2.02 M46.1 58.63 C61.27 40.61, 75.37 24.6, 95.31 2.02 M51.74 58.23 C66.92 39.68, 80.57 23.48, 100.29 2.38 M51.74 58.23 C63.84 43.99, 77.41 28.32, 100.29 2.38 M56.73 58.59 C72.36 41.86, 85.54 27.02, 105.94 1.99 M56.73 58.59 C70.84 41.46, 87.69 23.2, 105.94 1.99 M62.37 58.2 C81.04 39.39, 97.46 19.31, 110.92 2.35 M62.37 58.2 C80.19 38.5, 96.28 18.43, 110.92 2.35 M67.36 58.56 C79.47 46.39, 87.62 34.2, 116.57 1.95 M67.36 58.56 C81.09 42.95, 94.94 26.23, 116.57 1.95 M72.35 58.92 C91.09 36.11, 112.36 13.05, 121.55 2.31 M72.35 58.92 C83.29 47.19, 91.53 35.31, 121.55 2.31 M77.99 58.52 C92.95 37.75, 111.9 20.15, 127.2 1.92 M77.99 58.52 C95.25 38.01, 115.58 15.71, 127.2 1.92 M82.98 58.88 C100.35 38.96, 118.76 16.42, 132.18 2.28 M82.98 58.88 C97.62 42.06, 111.92 26.99, 132.18 2.28 M88.62 58.49 C105.59 39.29, 121.77 20.31, 137.17 2.64 M88.62 58.49 C104.69 41, 119.5 23.43, 137.17 2.64 M93.61 58.85 C112.34 36.59, 131.38 14.67, 142.81 2.24 M93.61 58.85 C108.6 43.19, 122.61 25.76, 142.81 2.24 M99.25 58.45 C119.57 36.03, 134 16.57, 148.46 1.85 M99.25 58.45 C116.79 39.87, 134.11 19.23, 148.46 1.85 M104.24 58.81 C114.75 43.33, 129.22 32.73, 152.13 3.72 M104.24 58.81 C121.29 38.48, 139.5 17.65, 152.13 3.72 M109.23 59.17 C126.53 38.41, 145.82 18.91, 155.15 6.34 M109.23 59.17 C127.43 38.14, 144.1 18.23, 155.15 6.34 M114.87 58.78 C127.06 43.55, 141.76 27.14, 156.2 11.23 M114.87 58.78 C124.68 48.54, 132.93 37.64, 156.2 11.23 M119.86 59.14 C133.32 47.16, 146.31 30.46, 155.94 17.63 M119.86 59.14 C132.32 44.91, 144.52 30.9, 155.94 17.63 M125.5 58.74 C132.39 48.8, 142 38.25, 155.68 24.03 M125.5 58.74 C131.7 49.84, 140.52 42.67, 155.68 24.03 M130.49 59.1 C138.79 51.96, 143.57 43.63, 156.07 29.67 M130.49 59.1 C136.54 53.52, 142.25 45.83, 156.07 29.67 M136.13 58.71 C140.63 50.03, 147.64 44.32, 155.81 36.07 M136.13 58.71 C144.3 50.43, 151.22 42.06, 155.81 36.07 M141.77 58.31 C143.57 55.27, 147.06 52.35, 155.55 42.47 M141.77 58.31 C146.04 52.65, 148.93 48.59, 155.55 42.47 M148.73 56.41 C152.1 53.29, 152.84 51.46, 155.29 48.86 M148.73 56.41 C150.51 54.57, 152.02 52.48, 155.29 48.86 M3.32 54.11 C3.32 54.11, 3.32 54.11, 3.32 54.11 M3.32 54.11 C3.32 54.11, 3.32 54.11, 3.32 54.11 M10.47 55.02 C6.24 53.03, 5.39 49.46, 0.66 46.5 M10.47 55.02 C7.06 53.03, 4.24 49.7, 0.66 46.5 M16.11 54.63 C11.71 49.4, 4.89 44.6, 0.26 40.85 M16.11 54.63 C12.91 50.82, 9.55 48.96, 0.26 40.85 M22.51 54.89 C15.97 48.5, 10.96 42.01, 0.62 35.87 M22.51 54.89 C14.44 46.34, 5.66 39.09, 0.62 35.87 M28.91 55.15 C19.84 49.16, 11.12 39.72, 0.98 30.88 M28.91 55.15 C21.05 47.37, 12.26 40.02, 0.98 30.88 M34.55 54.76 C25.83 45.29, 18.53 39.42, 0.59 25.24 M34.55 54.76 C23 43.91, 10.94 33.96, 0.59 25.24 M40.95 55.02 C28.94 43.63, 16.47 34.29, 0.95 20.25 M40.95 55.02 C28.24 42.85, 14.78 32.06, 0.95 20.25 M47.35 55.28 C37.37 45.33, 25.97 37.89, 0.55 14.61 M47.35 55.28 C32.29 43.85, 18.82 29.96, 0.55 14.61 M52.99 54.89 C41.18 44.26, 29.41 38.35, 0.91 9.62 M52.99 54.89 C32.84 37.86, 12.61 21.15, 0.91 9.62 M59.39 55.15 C47.82 44.08, 34.65 36.24, 2.03 5.29 M59.39 55.15 C39.74 38.75, 20.14 20.52, 2.03 5.29 M65.78 55.41 C46.03 36.37, 23.23 17.09, 5.41 2.92 M65.78 55.41 C45.71 38.49, 25.69 21, 5.41 2.92 M71.43 55.01 C55.21 39.63, 37.23 23.43, 8.03 -0.09 M71.43 55.01 C57.92 43.1, 43.93 31.44, 8.03 -0.09 M77.83 55.28 C51.17 33.32, 25.61 10.85, 12.92 -1.15 M77.83 55.28 C53.42 34.62, 30.39 14.3, 12.92 -1.15 M84.22 55.54 C65.34 40.06, 47.87 26.01, 17.05 -2.85 M84.22 55.54 C64.61 40.73, 47.86 24.14, 17.05 -2.85 M89.87 55.14 C77.85 42.81, 63.72 33.36, 23.45 -2.59 M89.87 55.14 C67.15 34.42, 41.9 12.23, 23.45 -2.59 M96.26 55.4 C74.24 36.42, 53.7 18.81, 29.1 -2.98 M96.26 55.4 C75.34 38.23, 54.76 19.51, 29.1 -2.98 M102.66 55.67 C81.44 40.82, 65.05 22.51, 35.49 -2.72 M102.66 55.67 C80.1 34.94, 56.67 15.09, 35.49 -2.72 M108.31 55.27 C86.68 35.89, 60.99 17.07, 41.89 -2.46 M108.31 55.27 C86.05 35.87, 64.35 18.48, 41.89 -2.46 M114.7 55.53 C89.57 33.07, 66.89 12.74, 47.53 -2.86 M114.7 55.53 C97.57 40.97, 82.15 27.06, 47.53 -2.86 M121.1 55.79 C97.37 35.68, 75.37 16.53, 53.93 -2.6 M121.1 55.79 C99.71 36.9, 76.74 16.5, 53.93 -2.6 M126.74 55.4 C101.33 35.75, 77.24 14.17, 60.33 -2.33 M126.74 55.4 C105.51 37.84, 81.76 18.99, 60.33 -2.33 M133.14 55.66 C114.03 39.3, 99.85 26.81, 65.97 -2.73 M133.14 55.66 C107.43 32.89, 81.15 10.36, 65.97 -2.73 M141.8 57.89 C119.73 38.78, 102.5 21.55, 72.37 -2.47 M141.8 57.89 C114.92 35.42, 89.55 11.9, 72.37 -2.47 M146.69 56.84 C122.88 34.65, 98.61 15.65, 78.77 -2.21 M146.69 56.84 C122.64 35.8, 98.87 15.55, 78.77 -2.21 M150.83 55.13 C129.54 34.97, 106.13 13.23, 84.41 -2.6 M150.83 55.13 C132.84 38.43, 113.5 21.91, 84.41 -2.6 M153.45 52.11 C137.6 39.15, 124.77 27.58, 90.81 -2.34 M153.45 52.11 C134 34.8, 113.26 17.25, 90.81 -2.34 M156.07 49.1 C134.02 28.82, 113.93 12.27, 97.21 -2.08 M156.07 49.1 C138.17 34.07, 122.34 19.96, 97.21 -2.08 M155.68 43.45 C143.68 31.97, 133.63 21.95, 102.85 -2.47 M155.68 43.45 C144.29 33.81, 134.31 24.85, 102.85 -2.47 M156.04 38.47 C146.97 27.66, 135.09 22.03, 109.25 -2.21 M156.04 38.47 C139.43 24.55, 124.21 11.05, 109.25 -2.21 M156.4 33.48 C143 20.91, 129.57 8.52, 115.65 -1.95 M156.4 33.48 C141.71 21.09, 128.98 10.48, 115.65 -1.95 M156 27.84 C140.31 15.26, 128.14 5.61, 121.29 -2.34 M156 27.84 C145.16 18.86, 134.34 10.01, 121.29 -2.34 M156.37 22.85 C148.36 19.21, 143.13 11.48, 127.69 -2.08 M156.37 22.85 C147.89 16.69, 141.36 8.71, 127.69 -2.08 M156.73 17.86 C151.46 12.38, 147.02 10.2, 134.08 -1.82 M156.73 17.86 C147.85 11, 140.61 3.01, 134.08 -1.82 M156.33 12.22 C150.3 5.88, 145.5 0.23, 139.73 -2.22 M156.33 12.22 C149.07 6.13, 142.79 0.65, 139.73 -2.22" stroke="#b2f2bb" stroke-width="0.5" fill="none"></path><path d="M14.5 0 M14.5 0 C41.71 -0.61, 65.76 -1.35, 141.5 0 M14.5 0 C43.74 0.02, 73.67 -1.17, 141.5 0 M141.5 0 C152.53 -0.97, 155.42 5.9, 156 14.5 M141.5 0 C151.19 2.03, 156.64 4.4, 156 14.5 M156 14.5 C155.26 27.64, 154.33 38.85, 156 43.5 M156 14.5 C154.96 21.88, 155.69 30.02, 156 43.5 M156 43.5 C156.94 53.96, 149.5 57.69, 141.5 58 M156 43.5 C153.84 53.3, 149.64 59.41, 141.5 58 M141.5 58 C94.36 58.34, 47.18 56.1, 14.5 58 M141.5 58 C91.76 57.92, 42.22 57.78, 14.5 58 M14.5 58 C4.24 58.66, 0.1 54.1, 0 43.5 M14.5 58 C6.59 57.61, -1.2 51.79, 0 43.5 M0 43.5 C0.84 35.98, -0.68 30.45, 0 14.5 M0 43.5 C-0.3 35.17, 0.22 27.57, 0 14.5 M0 14.5 C1.43 5.05, 2.89 1.91, 14.5 0 M0 14.5 C-1.28 5.31, 4.76 -1.6, 14.5 0" stroke="#2f9e44" stroke-width="1" fill="none"></path></g><g transform="translate(202.48414611816406 498.1667785644531) rotate(0 61.51597595214844 17.5)"><text x="61.51597595214844" y="0" font-family="Virgil, Segoe UI Emoji" font-size="28px" fill="#2f9e44" text-anchor="middle" style="white-space: pre;" direction="ltr" dominant-baseline="text-before-edge">Contract</text></g><g stroke-linecap="round" transform="translate(733.3333129882812 399.8334197998047) rotate(0 145 114)"><path d="M32 0 M32 0 C118.49 -1.1, 206.96 -3.18, 258 0 M32 0 C80.13 0.56, 127.25 0.83, 258 0 M258 0 C279.65 -0.06, 288.07 11.66, 290 32 M258 0 C280 -0.35, 289.63 9.49, 290 32 M290 32 C288.39 81.95, 290.77 126.03, 290 196 M290 32 C290.3 70.33, 290.39 107.13, 290 196 M290 196 C289.39 217.99, 281.17 229.53, 258 228 M290 196 C292.15 217.59, 280.13 230.29, 258 228 M258 228 C191.24 227.6, 127.16 226.76, 32 228 M258 228 C171.65 225.57, 86.99 226.13, 32 228 M32 228 C11.13 228.9, -0.94 215.38, 0 196 M32 228 C9.16 229.3, 2.1 217.14, 0 196 M0 196 C2.52 157.08, 1.27 116.46, 0 32 M0 196 C0.34 144.83, 0.27 92.02, 0 32 M0 32 C1.52 11.4, 12.43 -1.25, 32 0 M0 32 C-0.29 8.54, 9.62 -0.99, 32 0" stroke="#1e1e1e" stroke-width="1" fill="none"></path></g><g transform="translate(844.9013290405273 404.8334197998047) rotate(0 33.431983947753906 17.5)"><text x="33.431983947753906" y="0" font-family="Virgil, Segoe UI Emoji" font-size="28px" fill="#1e1e1e" text-anchor="middle" style="white-space: pre;" direction="ltr" dominant-baseline="text-before-edge">IPFS</text></g><g stroke-linecap="round" transform="translate(798.6666259765625 489.3334045410156) rotate(0 78.00006103515625 29)"><path d="M2 5.71 C2 5.71, 2 5.71, 2 5.71 M2 5.71 C2 5.71, 2 5.71, 2 5.71 M1.74 12.11 C3.37 8.79, 5.97 7.13, 8.3 4.56 M1.74 12.11 C4.33 9.55, 6.37 6.73, 8.3 4.56 M1.47 18.51 C3.33 14.43, 8.37 11.9, 16.56 1.15 M1.47 18.51 C5.05 12.54, 9.51 7.93, 16.56 1.15 M1.87 24.15 C7.93 17.35, 14.37 10.29, 21.55 1.51 M1.87 24.15 C7.68 15.88, 14.92 8.94, 21.55 1.51 M1.61 30.55 C10.04 19.37, 22.11 8.76, 26.54 1.87 M1.61 30.55 C10.97 19.83, 21.81 7.09, 26.54 1.87 M1.35 36.95 C10.74 25.44, 20.76 15.36, 32.18 1.47 M1.35 36.95 C13.31 22.47, 26.51 10.19, 32.18 1.47 M1.74 42.59 C10.36 30.35, 23.38 19.93, 37.17 1.83 M1.74 42.59 C14.73 28.92, 26.24 14.58, 37.17 1.83 M2.14 48.23 C12.32 39.08, 18.32 25.23, 42.81 1.44 M2.14 48.23 C11.9 36.05, 22.09 26.16, 42.81 1.44 M3.84 52.37 C15.35 42.54, 25.42 29.01, 47.8 1.8 M3.84 52.37 C19.81 34.56, 36.49 14.63, 47.8 1.8 M5.55 56.5 C19.44 40.26, 33.49 24.38, 53.44 1.41 M5.55 56.5 C16.67 44.58, 26.27 34.08, 53.44 1.41 M9.22 58.37 C24.71 39.76, 38.86 23.62, 58.43 1.77 M9.22 58.37 C28.93 36.82, 45.87 15.37, 58.43 1.77 M14.87 57.97 C31.46 41.16, 44.55 22.5, 63.42 2.13 M14.87 57.97 C27.56 42.96, 40.85 27.22, 63.42 2.13 M19.85 58.33 C36.74 42.56, 48.2 27.08, 69.06 1.73 M19.85 58.33 C31.81 45.8, 44.29 30.16, 69.06 1.73 M25.5 57.94 C37.5 45.94, 46.99 29.54, 74.05 2.09 M25.5 57.94 C36.47 45.37, 48.01 33, 74.05 2.09 M30.48 58.3 C45.1 38.98, 64 21.01, 79.69 1.7 M30.48 58.3 C46.3 39.96, 61.72 20.45, 79.69 1.7 M35.47 58.66 C51.74 37.97, 67.07 22.07, 84.68 2.06 M35.47 58.66 C49.11 42.08, 62.43 27.31, 84.68 2.06 M41.11 58.27 C51.62 47.41, 64.09 32.46, 90.32 1.66 M41.11 58.27 C59.48 38.08, 77.38 17.29, 90.32 1.66 M46.1 58.63 C60.87 37.97, 80.58 21.24, 95.31 2.02 M46.1 58.63 C59.33 42.72, 75.13 25.96, 95.31 2.02 M51.74 58.23 C68.21 35.35, 87.83 18.38, 100.29 2.38 M51.74 58.23 C70.46 36.84, 89.38 16.31, 100.29 2.38 M56.73 58.59 C77.47 36.37, 96.43 11.56, 105.94 1.99 M56.73 58.59 C74.58 39.52, 91.43 18.98, 105.94 1.99 M62.37 58.2 C73.18 44.34, 84.58 32.48, 110.92 2.35 M62.37 58.2 C79.63 38.26, 97.36 18.69, 110.92 2.35 M67.36 58.56 C80.98 43.24, 93.62 28.78, 116.57 1.95 M67.36 58.56 C85.5 38.46, 102.17 17.05, 116.57 1.95 M72.35 58.92 C84.69 45.85, 94.09 33.24, 121.55 2.31 M72.35 58.92 C90.61 38.6, 108.93 16.25, 121.55 2.31 M77.99 58.52 C94.42 40.28, 111.3 19.06, 127.2 1.92 M77.99 58.52 C90.05 44.55, 101.95 29.3, 127.2 1.92 M82.98 58.88 C94.47 44.36, 108.17 33.11, 132.18 2.28 M82.98 58.88 C96.37 43.88, 110.27 27.42, 132.18 2.28 M88.62 58.49 C100.45 44.29, 111.84 29.91, 137.17 2.64 M88.62 58.49 C107.23 36.54, 126.19 15.64, 137.17 2.64 M93.61 58.85 C111.29 38.7, 128.05 17.56, 142.81 2.24 M93.61 58.85 C112.75 36.83, 132.09 13.64, 142.81 2.24 M99.25 58.45 C119.28 36.59, 138.22 16.08, 148.46 1.85 M99.25 58.45 C118.44 38.3, 136.76 16.61, 148.46 1.85 M104.24 58.81 C123.53 38.61, 138.28 21.48, 152.13 3.72 M104.24 58.81 C114.57 46.55, 125.65 33.72, 152.13 3.72 M109.23 59.17 C120.91 46.49, 131.34 31.72, 155.15 6.34 M109.23 59.17 C117.87 48.41, 128.15 36.81, 155.15 6.34 M114.87 58.78 C125.41 46.55, 138.59 28.78, 156.2 11.23 M114.87 58.78 C129.97 40.47, 146.2 22.02, 156.2 11.23 M119.86 59.14 C131.49 48.14, 140.6 35.85, 155.94 17.63 M119.86 59.14 C133.33 43.82, 145.63 29.02, 155.94 17.63 M125.5 58.74 C130.45 49.89, 136.7 43.78, 155.68 24.03 M125.5 58.74 C137.56 44.93, 150.53 30.31, 155.68 24.03 M130.49 59.1 C136.97 54.4, 139.99 46.47, 156.07 29.67 M130.49 59.1 C137.2 50.56, 145.71 42.54, 156.07 29.67 M136.13 58.71 C140.05 51.7, 145.36 48.88, 155.81 36.07 M136.13 58.71 C141.66 51.84, 149.54 43.04, 155.81 36.07 M141.77 58.31 C146.25 52.69, 151.59 48.06, 155.55 42.47 M141.77 58.31 C146.54 53.34, 150.23 47.82, 155.55 42.47 M148.73 56.41 C149.45 54.98, 150.64 53.08, 155.29 48.86 M148.73 56.41 C151.71 53.33, 154.06 50.68, 155.29 48.86 M3.32 54.11 C3.32 54.11, 3.32 54.11, 3.32 54.11 M3.32 54.11 C3.32 54.11, 3.32 54.11, 3.32 54.11 M10.47 55.02 C6.52 51.06, 4.74 49.33, 0.66 46.5 M10.47 55.02 C8.27 53.33, 5.14 50.67, 0.66 46.5 M16.11 54.63 C12.82 52.36, 10.55 46.7, 0.26 40.85 M16.11 54.63 C12.67 51.2, 9.4 49.86, 0.26 40.85 M22.51 54.89 C15.54 49.4, 9.98 44.65, 0.62 35.87 M22.51 54.89 C17.42 49.9, 12.34 44.86, 0.62 35.87 M28.91 55.15 C19.16 46.49, 13.18 41.44, 0.98 30.88 M28.91 55.15 C21.78 49.35, 16.73 44.63, 0.98 30.88 M34.55 54.76 C23.23 45.86, 13.66 34.82, 0.59 25.24 M34.55 54.76 C24.4 45.65, 14.69 37.16, 0.59 25.24 M40.95 55.02 C26.86 45.75, 14.71 32.51, 0.95 20.25 M40.95 55.02 C31.78 46.82, 22.85 39.14, 0.95 20.25 M47.35 55.28 C30.46 41.82, 13.42 25.33, 0.55 14.61 M47.35 55.28 C32.12 43.61, 18.79 29.84, 0.55 14.61 M52.99 54.89 C41.28 44.22, 29.21 32.06, 0.91 9.62 M52.99 54.89 C40.41 43.41, 26.23 32.95, 0.91 9.62 M59.39 55.15 C44.88 40.98, 27.36 28.79, 2.03 5.29 M59.39 55.15 C40.1 37.7, 21.36 21.77, 2.03 5.29 M65.78 55.41 C43.9 35.66, 22.57 17.44, 5.41 2.92 M65.78 55.41 C41.22 34.19, 17.65 13.64, 5.41 2.92 M71.43 55.01 C56.48 40.81, 40.97 26.84, 8.03 -0.09 M71.43 55.01 C51.25 37.89, 30.66 19.57, 8.03 -0.09 M77.83 55.28 C54.69 35.38, 31.59 16.01, 12.92 -1.15 M77.83 55.28 C54.68 34.1, 32.62 15.53, 12.92 -1.15 M84.22 55.54 C57.29 33.52, 34.71 12.93, 17.05 -2.85 M84.22 55.54 C59.19 33.7, 35.31 12.3, 17.05 -2.85 M89.87 55.14 C69.39 37.7, 48.18 16.47, 23.45 -2.59 M89.87 55.14 C72.73 40.17, 56.23 26.37, 23.45 -2.59 M96.26 55.4 C73.88 36.06, 51.92 17.09, 29.1 -2.98 M96.26 55.4 C74.94 37.4, 55.16 19.14, 29.1 -2.98 M102.66 55.67 C79.64 36.99, 54.28 14.18, 35.49 -2.72 M102.66 55.67 C86.46 40.16, 68.87 25.46, 35.49 -2.72 M108.31 55.27 C90.84 42.81, 76.09 29.63, 41.89 -2.46 M108.31 55.27 C90.03 39.79, 74.13 24.42, 41.89 -2.46 M114.7 55.53 C99.02 44.36, 85.79 29.88, 47.53 -2.86 M114.7 55.53 C93.1 35.61, 70.23 17.43, 47.53 -2.86 M121.1 55.79 C93.95 35.79, 69.93 11.54, 53.93 -2.6 M121.1 55.79 C99.82 37.65, 78.23 18.02, 53.93 -2.6 M126.74 55.4 C112.29 43.19, 94.11 26.29, 60.33 -2.33 M126.74 55.4 C107.07 37.42, 86.04 19.55, 60.33 -2.33 M133.14 55.66 C107.76 36.82, 87.51 14.13, 65.97 -2.73 M133.14 55.66 C113.26 38.2, 95.47 22.15, 65.97 -2.73 M141.8 57.89 C127.62 43.58, 109.83 27.78, 72.37 -2.47 M141.8 57.89 C124.35 43.82, 107.97 28.99, 72.37 -2.47 M146.69 56.84 C129.37 40.99, 109.49 24.7, 78.77 -2.21 M146.69 56.84 C127.82 39.36, 108.37 22.68, 78.77 -2.21 M150.83 55.13 C137.85 44.44, 122.68 31.44, 84.41 -2.6 M150.83 55.13 C126.01 34.41, 102.3 11.32, 84.41 -2.6 M153.45 52.11 C130.76 30.76, 104.03 7.24, 90.81 -2.34 M153.45 52.11 C130.65 31.9, 107.67 11.91, 90.81 -2.34 M156.07 49.1 C136.37 29.43, 112.56 10.89, 97.21 -2.08 M156.07 49.1 C144.27 39.04, 129.8 27.39, 97.21 -2.08 M155.68 43.45 C141.52 30.66, 127.85 17.46, 102.85 -2.47 M155.68 43.45 C138 27.98, 119.44 11.79, 102.85 -2.47 M156.04 38.47 C137.8 24.68, 120.13 8.85, 109.25 -2.21 M156.04 38.47 C141.83 26.13, 128.65 14.14, 109.25 -2.21 M156.4 33.48 C142.24 21.49, 127.1 4.97, 115.65 -1.95 M156.4 33.48 C142.29 22.07, 130.43 9.99, 115.65 -1.95 M156 27.84 C144.58 18.82, 135.84 8.69, 121.29 -2.34 M156 27.84 C142.39 17.26, 129.71 5.04, 121.29 -2.34 M156.37 22.85 C146.99 15.06, 134.95 5.73, 127.69 -2.08 M156.37 22.85 C146.72 13.98, 137.93 6.41, 127.69 -2.08 M156.73 17.86 C152.35 14.95, 145.18 9.61, 134.08 -1.82 M156.73 17.86 C152.61 14.33, 147.04 9.48, 134.08 -1.82 M156.33 12.22 C152.67 9.67, 146.6 4.94, 139.73 -2.22 M156.33 12.22 C150.72 6.74, 144.61 0.79, 139.73 -2.22" stroke="#a5d8ff" stroke-width="0.5" fill="none"></path><path d="M14.5 0 M14.5 0 C50.48 0.75, 90.24 -0.22, 141.5 0 M14.5 0 C46.36 -0.35, 79 -0.27, 141.5 0 M141.5 0 C150.21 -1.36, 157.76 4.73, 156 14.5 M141.5 0 C150.07 -1.45, 155.91 5.12, 156 14.5 M156 14.5 C154.37 26.74, 156.03 34.4, 156 43.5 M156 14.5 C155.31 23.02, 156.65 33.29, 156 43.5 M156 43.5 C155.56 53.14, 149.66 59.23, 141.5 58 M156 43.5 C156.44 55.06, 149.33 57.38, 141.5 58 M141.5 58 C103.13 57.32, 65.15 58.82, 14.5 58 M141.5 58 C93.64 58.69, 45.31 57.47, 14.5 58 M14.5 58 C4.81 58.08, 0.83 52.55, 0 43.5 M14.5 58 C6.63 57.19, 1.92 52.11, 0 43.5 M0 43.5 C1.79 32.38, -1.32 20.64, 0 14.5 M0 43.5 C0.34 34.23, 0.72 22.96, 0 14.5 M0 14.5 C0.29 2.98, 4.6 1.32, 14.5 0 M0 14.5 C-0.01 6.08, 5.86 1.79, 14.5 0" stroke="#1971c2" stroke-width="1" fill="none"></path></g><g transform="translate(834.9607162475586 500.8334045410156) rotate(0 41.705970764160156 17.5)"><text x="41.705970764160156" y="0" font-family="Virgil, Segoe UI Emoji" font-size="28px" fill="#1971c2" text-anchor="middle" style="white-space: pre;" direction="ltr" dominant-baseline="text-before-edge">Binary</text></g><g stroke-linecap="round" transform="translate(443.33343505859375 176.58336639404297) rotate(0 130.99993896484375 116.33334350585938)"><path d="M163.75 29.25 M163.75 29.25 C184.25 45.65, 205.72 66.63, 229.25 87.75 M163.75 29.25 C190.45 52.12, 215.25 75.84, 229.25 87.75 M229.25 87.75 C261.04 118.03, 261.61 118.01, 229.25 146.25 M229.25 87.75 C261.96 116.44, 261.15 114.79, 229.25 146.25 M229.25 146.25 C206.47 165.19, 187.71 183.41, 163.75 203.42 M229.25 146.25 C210.71 161.57, 194.14 176.39, 163.75 203.42 M163.75 203.42 C132.14 233.87, 130.84 230.74, 98.25 203.42 M163.75 203.42 C130.13 233.46, 132.51 231.65, 98.25 203.42 M98.25 203.42 C82.69 191.04, 69.8 179.49, 32.75 146.25 M98.25 203.42 C84.59 191.43, 70.84 179.31, 32.75 146.25 M32.75 146.25 C-0.83 118.3, 0.04 117.82, 32.75 87.75 M32.75 146.25 C-0.03 115.07, 2.13 117.28, 32.75 87.75 M32.75 87.75 C57.17 66.71, 81.74 44, 98.25 29.25 M32.75 87.75 C45.31 76.06, 59.19 63.55, 98.25 29.25 M98.25 29.25 C130.06 -0.74, 129.79 -0.64, 163.75 29.25 M98.25 29.25 C131.86 1.49, 129.68 -0.27, 163.75 29.25" stroke="#1e1e1e" stroke-width="1" fill="none"></path></g><g transform="translate(527.3914260864258 275.25003814697266) rotate(0 46.941978454589844 17.5)"><text x="46.941978454589844" y="0" font-family="Virgil, Segoe UI Emoji" font-size="28px" fill="#1e1e1e" text-anchor="middle" style="white-space: pre;" direction="ltr" dominant-baseline="text-before-edge">Compile</text></g><g stroke-linecap="round"><g transform="translate(573.3334350585938 115.33340454101562) rotate(0 -0.5739696588600509 25.93291908805259)"><path d="M0.37 0.59 C0.18 8.93, -1.59 42.31, -1.67 50.55 M-0.89 -0.15 C-0.68 8.35, 0.46 43.5, 0.52 52.02" stroke="#1e1e1e" stroke-width="1" fill="none"></path></g><g transform="translate(573.3334350585938 115.33340454101562) rotate(0 -0.5739696588600509 25.93291908805259)"><path d="M0.01 52.16 L-7.16 39.55 L8.23 38.46 L1.79 51.63" stroke="none" stroke-width="0" fill="#1e1e1e" fill-rule="evenodd"></path><path d="M1.25 50.77 C-1.4 49.31, -3.8 45.04, -6.78 38.78 M1.02 52.6 C-0.85 48.97, -3.41 45.19, -5.9 37.93 M-5.44 39.7 C-2.29 39.29, -2.04 37.62, 6.9 38.95 M-6.41 38.97 C-0.67 38.34, 3.96 37.81, 6.13 38.89 M7.61 37.53 C5.06 43.05, 1.69 46.98, 1.4 53.33 M7.09 37.59 C4.65 43.22, 2.28 46.17, 0.4 52.04 M0.52 52.02 C0.52 52.02, 0.52 52.02, 0.52 52.02 M0.52 52.02 C0.52 52.02, 0.52 52.02, 0.52 52.02" stroke="#1e1e1e" stroke-width="1" fill="none"></path></g></g><mask></mask><g stroke-linecap="round"><g transform="translate(648.0000610351562 360.6667785644531) rotate(0 74.16722191936333 62.830526913190255)"><path d="M0.99 0.62 C25.45 21.57, 121.93 104, 146.18 124.84 M0.05 -0.1 C24.91 21.03, 123.47 104.63, 148.29 125.77" stroke="#1e1e1e" stroke-width="1" fill="none"></path></g><g transform="translate(648.0000610351562 360.6667785644531) rotate(0 74.16722191936333 62.830526913190255)"><path d="M148.37 124.97 L135.22 121.86 L143.08 113.49 L148.41 126.54" stroke="none" stroke-width="0" fill="#1e1e1e" fill-rule="evenodd"></path><path d="M149.06 124.32 C143.21 123.85, 140.53 123.68, 133.5 120.96 M148.17 125.51 C142.67 124.6, 137.13 123.44, 133.75 121.59 M134.19 122.95 C136.96 119.53, 138.71 117.54, 141.34 113.01 M134.28 122.27 C135.25 119.3, 137.4 116.95, 142.25 112.34 M141.95 111.89 C144.33 116.1, 147.57 123.23, 148.87 125.57 M142.02 112.22 C144.36 116.6, 146.06 121.79, 148.53 126.19 M148.29 125.77 C148.29 125.77, 148.29 125.77, 148.29 125.77 M148.29 125.77 C148.29 125.77, 148.29 125.77, 148.29 125.77" stroke="#1e1e1e" stroke-width="1" fill="none"></path></g></g><mask></mask><g stroke-linecap="round"><g transform="translate(502.66668701171875 360.0000915527344) rotate(0 -77.30325239148453 66.05722895715851)"><path d="M-0.06 0.2 C-25.66 22.4, -128.03 111.01, -153.74 132.86 M-1.55 -0.75 C-27.27 21.16, -128.93 109.03, -154.55 131.19" stroke="#1e1e1e" stroke-width="1" fill="none"></path></g><g transform="translate(502.66668701171875 360.0000915527344) rotate(0 -77.30325239148453 66.05722895715851)"><path d="M-154.54 133.03 L-147.21 117.69 L-138.68 125.79 L-153.45 133.13" stroke="none" stroke-width="0" fill="#1e1e1e" fill-rule="evenodd"></path><path d="M-154.3 131.52 C-151.66 126.83, -151.84 123.14, -147.72 117.5 M-153.95 131.68 C-152.84 127.86, -151.64 124.19, -147.8 118.2 M-148.88 117.53 C-146.06 120.7, -143.49 125.64, -140.68 126.9 M-147.98 117.48 C-145.47 121.23, -142.96 123.41, -140.45 127.56 M-138.97 125.99 C-143.46 128.26, -147.99 129.06, -155.95 131.39 M-140.44 126.89 C-144.75 128.57, -148.83 130.02, -154.1 130.5 M-154.55 131.19 C-154.55 131.19, -154.55 131.19, -154.55 131.19 M-154.55 131.19 C-154.55 131.19, -154.55 131.19, -154.55 131.19" stroke="#1e1e1e" stroke-width="1" fill="none"></path></g></g><mask></mask><g transform="translate(686.0001831054688 319.3334655761719) rotate(0 38.863990783691406 35)"><text x="0" y="0" font-family="Virgil, Segoe UI Emoji" font-size="28px" fill="#1e1e1e" text-anchor="start" style="white-space: pre;" direction="ltr" dominant-baseline="text-before-edge">JS /</text><text x="0" y="35" font-family="Virgil, Segoe UI Emoji" font-size="28px" fill="#1e1e1e" text-anchor="start" style="white-space: pre;" direction="ltr" dominant-baseline="text-before-edge">WASM</text></g><g transform="translate(343.33331298828125 364.6667175292969) rotate(0 70.3125 12)"><text x="0" y="0" font-family="Cascadia, Segoe UI Emoji" font-size="20px" fill="#1e1e1e" text-anchor="start" style="white-space: pre;" direction="ltr" dominant-baseline="text-before-edge">4530c33f8...</text></g><g transform="translate(335.33331298828125 333.0000305175781) rotate(0 73.828125 16.80000000000001)"><text x="0" y="0" font-family="Cascadia, Segoe UI Emoji" font-size="28px" fill="#2f9e44" text-anchor="start" style="white-space: pre;" direction="ltr" dominant-baseline="text-before-edge">Authorize</text></g><g stroke-linecap="round" transform="translate(181.33343505859375 670.0000305175781) rotate(0 104.99993896484375 111.33331298828125)"><path d="M32 0 M32 0 C65.62 1.75, 99.81 -1.37, 178 0 M32 0 C85.04 0.46, 138.58 1.29, 178 0 M178 0 C200.78 0.75, 208.97 9.73, 210 32 M178 0 C198.39 -1.17, 210.2 10.4, 210 32 M210 32 C209.33 90.77, 210.89 153.56, 210 190.67 M210 32 C209.61 95.48, 211.3 158.46, 210 190.67 M210 190.67 C210.39 210.47, 197.61 223.68, 178 222.67 M210 190.67 C211.82 212.16, 200.59 222.38, 178 222.67 M178 222.67 C139.09 223.43, 98.31 220.43, 32 222.67 M178 222.67 C127.11 224.49, 76.66 223.39, 32 222.67 M32 222.67 C11.77 222.23, -1.5 212.19, 0 190.67 M32 222.67 C8.5 221.21, 1.76 211.58, 0 190.67 M0 190.67 C0.59 137.6, -1.94 84.11, 0 32 M0 190.67 C-1.54 130.34, 0.06 68.68, 0 32 M0 32 C-1.95 9.15, 12.29 -1.68, 32 0 M0 32 C1.89 8.86, 11.37 -0.42, 32 0" stroke="#f08c00" stroke-width="1" fill="none"></path></g><g transform="translate(262.11339569091797 675.0000305175781) rotate(0 24.21997833251953 12.5)"><text x="24.21997833251953" y="0" font-family="Virgil, Segoe UI Emoji" font-size="20px" fill="#f08c00" text-anchor="middle" style="white-space: pre;" direction="ltr" dominant-baseline="text-before-edge">DApp</text></g><g stroke-linecap="round"><g transform="translate(792.6666259765625 529.4453968807468) rotate(0 -211.14728531464925 114.95052893303964)"><path d="M0.61 0.2 C-69.74 38.67, -352.45 191.39, -422.9 229.7" stroke="#f08c00" stroke-width="1.5" fill="none" stroke-dasharray="8 9"></path></g><g transform="translate(792.6666259765625 529.4453968807468) rotate(0 -211.14728531464925 114.95052893303964)"><path d="M-421.03 228.01 L-414.67 215.73 L-406.13 227.14 L-423.21 230.79" stroke="none" stroke-width="0" fill="#f08c00" fill-rule="evenodd"></path><path d="M-422.65 229.41 C-421.31 227.63, -418.77 225.33, -414.38 216.92 M-415.15 217.51 C-411.54 221.8, -408.1 227.23, -407.57 227.65 M-407.08 227.75 C-414.69 229.1, -418.78 230.29, -423.3 230.47 M-422.9 229.7 C-422.9 229.7, -422.9 229.7, -422.9 229.7" stroke="#f08c00" stroke-width="1.5" fill="none"></path></g></g><mask></mask><g stroke-linecap="round" transform="translate(205.9998779296875 744.3334045410156) rotate(0 78.00006103515625 29)"><path d="M2 5.71 C2 5.71, 2 5.71, 2 5.71 M2 5.71 C2 5.71, 2 5.71, 2 5.71 M1.74 12.11 C2.48 9.36, 5.5 8.91, 8.3 4.56 M1.74 12.11 C4.56 9.1, 6.39 5.98, 8.3 4.56 M1.47 18.51 C4.82 11.15, 11.66 9.04, 16.56 1.15 M1.47 18.51 C5.88 12.67, 10.18 7.79, 16.56 1.15 M1.87 24.15 C7.84 16.69, 13.98 10.82, 21.55 1.51 M1.87 24.15 C5.52 19.41, 10.29 13.89, 21.55 1.51 M1.61 30.55 C5.36 23.21, 11.99 17.09, 26.54 1.87 M1.61 30.55 C7.49 24.03, 12.77 17.58, 26.54 1.87 M1.35 36.95 C9.45 27.46, 17.67 18.36, 32.18 1.47 M1.35 36.95 C12 24.3, 22.37 13.22, 32.18 1.47 M1.74 42.59 C13.47 30.2, 24.2 16.36, 37.17 1.83 M1.74 42.59 C14.74 28.59, 25.72 13.44, 37.17 1.83 M2.14 48.23 C12.78 38.58, 24.04 24.17, 42.81 1.44 M2.14 48.23 C13.81 35.03, 26.44 20, 42.81 1.44 M3.84 52.37 C14.57 40.09, 25.77 23.48, 47.8 1.8 M3.84 52.37 C16.61 36.81, 28.59 23.29, 47.8 1.8 M5.55 56.5 C20.17 38.16, 36.32 22.72, 53.44 1.41 M5.55 56.5 C18.77 40.98, 32.04 27.63, 53.44 1.41 M9.22 58.37 C29.27 35.44, 44.85 15.52, 58.43 1.77 M9.22 58.37 C20.61 44.79, 31.43 32.39, 58.43 1.77 M14.87 57.97 C26.5 40.82, 41.59 29.24, 63.42 2.13 M14.87 57.97 C25.6 46.01, 36.65 33.65, 63.42 2.13 M19.85 58.33 C28.72 47.66, 39.3 35.87, 69.06 1.73 M19.85 58.33 C28.43 45.84, 38.39 35.25, 69.06 1.73 M25.5 57.94 C44.79 35.3, 61.54 17.21, 74.05 2.09 M25.5 57.94 C43.8 37.39, 63.09 14.36, 74.05 2.09 M30.48 58.3 C41.62 43.96, 53.36 31.84, 79.69 1.7 M30.48 58.3 C42.35 44.22, 55 28.82, 79.69 1.7 M35.47 58.66 C54.16 40.57, 69.06 21.67, 84.68 2.06 M35.47 58.66 C46.7 46.78, 55.99 34.34, 84.68 2.06 M41.11 58.27 C55.18 39.72, 69.03 24.95, 90.32 1.66 M41.11 58.27 C55.9 40.17, 71.99 22.84, 90.32 1.66 M46.1 58.63 C58.65 45.06, 67.41 30.64, 95.31 2.02 M46.1 58.63 C64 36.68, 82.51 16, 95.31 2.02 M51.74 58.23 C65.43 42.09, 80.89 23.75, 100.29 2.38 M51.74 58.23 C62.94 44.28, 75.71 30.69, 100.29 2.38 M56.73 58.59 C73.03 38.8, 92.4 18.21, 105.94 1.99 M56.73 58.59 C74.89 36.84, 93.48 17.3, 105.94 1.99 M62.37 58.2 C78.49 38.92, 94.25 23.98, 110.92 2.35 M62.37 58.2 C74.36 44.09, 85.19 30.56, 110.92 2.35 M67.36 58.56 C83.16 40.26, 98.37 21.27, 116.57 1.95 M67.36 58.56 C84.96 38.63, 101.78 19.58, 116.57 1.95 M72.35 58.92 C86.05 42, 105.74 24.08, 121.55 2.31 M72.35 58.92 C83.37 45.94, 95.04 32.17, 121.55 2.31 M77.99 58.52 C89.35 45.5, 98.71 33.06, 127.2 1.92 M77.99 58.52 C91.28 43.81, 102.34 29.29, 127.2 1.92 M82.98 58.88 C93.01 47.11, 106.91 33.52, 132.18 2.28 M82.98 58.88 C95.8 44.04, 109.51 29.28, 132.18 2.28 M88.62 58.49 C100.63 43.38, 114.41 28.63, 137.17 2.64 M88.62 58.49 C102.22 43.02, 115.41 26.09, 137.17 2.64 M93.61 58.85 C106.89 45.69, 118.43 32.41, 142.81 2.24 M93.61 58.85 C107.69 41.59, 122.99 25.1, 142.81 2.24 M99.25 58.45 C114.26 43.2, 126.83 26.03, 148.46 1.85 M99.25 58.45 C111.92 44.82, 124.47 28.68, 148.46 1.85 M104.24 58.81 C119.37 41.23, 132.81 23.37, 152.13 3.72 M104.24 58.81 C118.01 43.76, 129.76 30.5, 152.13 3.72 M109.23 59.17 C122.46 44.54, 135.15 29.35, 155.15 6.34 M109.23 59.17 C118.77 48.29, 129.61 36.56, 155.15 6.34 M114.87 58.78 C129.63 43.77, 139.38 30.96, 156.2 11.23 M114.87 58.78 C131.09 40.22, 146.94 23.18, 156.2 11.23 M119.86 59.14 C131.89 43.32, 144.3 31.58, 155.94 17.63 M119.86 59.14 C128.81 49.7, 137.47 39.22, 155.94 17.63 M125.5 58.74 C133.43 52.25, 139.24 44.1, 155.68 24.03 M125.5 58.74 C132.96 50.25, 139.05 42.83, 155.68 24.03 M130.49 59.1 C137.68 50.75, 145.53 43.71, 156.07 29.67 M130.49 59.1 C135.81 52.94, 141.79 45.28, 156.07 29.67 M136.13 58.71 C142.07 50.86, 152.14 44.42, 155.81 36.07 M136.13 58.71 C140.54 52, 146.4 45.46, 155.81 36.07 M141.77 58.31 C143.6 54.47, 147.56 51.34, 155.55 42.47 M141.77 58.31 C145.69 53.08, 149.18 48.9, 155.55 42.47 M148.73 56.41 C150.05 53.9, 152.66 51.17, 155.29 48.86 M148.73 56.41 C150.9 53.53, 153.05 51.4, 155.29 48.86 M3.32 54.11 C3.32 54.11, 3.32 54.11, 3.32 54.11 M3.32 54.11 C3.32 54.11, 3.32 54.11, 3.32 54.11 M10.47 55.02 C8.18 53.39, 3.65 50.12, 0.66 46.5 M10.47 55.02 C8.2 52.47, 6.15 51.71, 0.66 46.5 M16.11 54.63 C9.24 51.93, 6.25 47.76, 0.26 40.85 M16.11 54.63 C10.53 48.71, 4.81 45.03, 0.26 40.85 M22.51 54.89 C19.17 51.48, 13.48 47.6, 0.62 35.87 M22.51 54.89 C16.16 49.67, 9.36 42.75, 0.62 35.87 M28.91 55.15 C21.49 48.21, 12.35 39.66, 0.98 30.88 M28.91 55.15 C17.31 44.88, 7.07 36.44, 0.98 30.88 M34.55 54.76 C22.5 43.22, 11.22 31.82, 0.59 25.24 M34.55 54.76 C24.96 46.35, 14.57 38.77, 0.59 25.24 M40.95 55.02 C27.93 42.79, 15.99 31.63, 0.95 20.25 M40.95 55.02 C30.24 45.57, 19.54 36.22, 0.95 20.25 M47.35 55.28 C32.13 42.77, 13.79 26.38, 0.55 14.61 M47.35 55.28 C37.02 45.73, 25.58 36.78, 0.55 14.61 M52.99 54.89 C35.06 38.33, 17.86 22.17, 0.91 9.62 M52.99 54.89 C36.1 38.83, 17.64 23.05, 0.91 9.62 M59.39 55.15 C38.64 36.02, 19.95 21.64, 2.03 5.29 M59.39 55.15 C46.07 43.87, 33.15 31.87, 2.03 5.29 M65.78 55.41 C53.18 42.72, 36.44 31.48, 5.41 2.92 M65.78 55.41 C50.86 41.24, 33.56 28.59, 5.41 2.92 M71.43 55.01 C49.93 35.25, 27.44 15.07, 8.03 -0.09 M71.43 55.01 C56.3 41.05, 39.67 26.23, 8.03 -0.09 M77.83 55.28 C64.22 43.69, 50.9 31.87, 12.92 -1.15 M77.83 55.28 C54.86 35.92, 31.74 15.22, 12.92 -1.15 M84.22 55.54 C67.88 40.81, 51.05 26.57, 17.05 -2.85 M84.22 55.54 C68.32 42.29, 53.71 29.98, 17.05 -2.85 M89.87 55.14 C68.32 37.03, 43.81 15.96, 23.45 -2.59 M89.87 55.14 C75.1 43.17, 62.72 31.86, 23.45 -2.59 M96.26 55.4 C77.41 39.84, 62.42 27.3, 29.1 -2.98 M96.26 55.4 C69.97 33.16, 43.64 8.97, 29.1 -2.98 M102.66 55.67 C80.09 34.53, 56.4 17.19, 35.49 -2.72 M102.66 55.67 C77.37 33.34, 52.14 10.52, 35.49 -2.72 M108.31 55.27 C88.98 38.86, 69.62 20.47, 41.89 -2.46 M108.31 55.27 C87.21 38.02, 66.72 18.93, 41.89 -2.46 M114.7 55.53 C92.7 37.11, 71.42 20.56, 47.53 -2.86 M114.7 55.53 C94.98 38.51, 76.3 21.88, 47.53 -2.86 M121.1 55.79 C92.89 32.26, 66.88 8.49, 53.93 -2.6 M121.1 55.79 C98.93 36.16, 79.23 18.97, 53.93 -2.6 M126.74 55.4 C101.32 32.68, 73.86 10.58, 60.33 -2.33 M126.74 55.4 C102.68 32.93, 77.34 12.1, 60.33 -2.33 M133.14 55.66 C107.6 33.75, 86.53 16.44, 65.97 -2.73 M133.14 55.66 C106.45 32.87, 78.58 8.35, 65.97 -2.73 M141.8 57.89 C115.51 38.32, 92.8 15.47, 72.37 -2.47 M141.8 57.89 C122.12 40.27, 101.52 23.47, 72.37 -2.47 M146.69 56.84 C129.85 41.84, 110.54 28.49, 78.77 -2.21 M146.69 56.84 C123.94 36.96, 101.09 17.68, 78.77 -2.21 M150.83 55.13 C128.33 32.39, 103.69 14.7, 84.41 -2.6 M150.83 55.13 C127.88 35.44, 103.47 13.87, 84.41 -2.6 M153.45 52.11 C132.79 34.15, 113.5 16.88, 90.81 -2.34 M153.45 52.11 C140.91 40.27, 129.52 30.29, 90.81 -2.34 M156.07 49.1 C145.22 37.84, 132.49 27.8, 97.21 -2.08 M156.07 49.1 C139.16 35.17, 123.95 19.96, 97.21 -2.08 M155.68 43.45 C141.43 31.99, 125.07 17, 102.85 -2.47 M155.68 43.45 C145.48 33.33, 133.57 23.91, 102.85 -2.47 M156.04 38.47 C139.06 25.16, 121.94 11.94, 109.25 -2.21 M156.04 38.47 C145.66 28.62, 136.11 20.57, 109.25 -2.21 M156.4 33.48 C139.01 19.86, 124.07 6.34, 115.65 -1.95 M156.4 33.48 C142.98 21.58, 129.84 10.21, 115.65 -1.95 M156 27.84 C147.54 20.84, 142.35 16.19, 121.29 -2.34 M156 27.84 C143.74 16.63, 132.67 6.57, 121.29 -2.34 M156.37 22.85 C146.86 16.01, 140.87 9.53, 127.69 -2.08 M156.37 22.85 C146.02 13.05, 135.64 4.78, 127.69 -2.08 M156.73 17.86 C152.79 14.31, 146.16 8.54, 134.08 -1.82 M156.73 17.86 C149.84 13.19, 144.67 7.19, 134.08 -1.82 M156.33 12.22 C148.1 8.73, 142.81 0.95, 139.73 -2.22 M156.33 12.22 C150.08 6.65, 144.13 2.15, 139.73 -2.22" stroke="#a5d8ff" stroke-width="0.5" fill="none"></path><path d="M14.5 0 M14.5 0 C64.86 0.03, 112.95 0.53, 141.5 0 M14.5 0 C43.59 0.69, 73.28 0.95, 141.5 0 M141.5 0 C152.13 -0.9, 157.95 4.68, 156 14.5 M141.5 0 C149.16 -0.99, 154.8 3.71, 156 14.5 M156 14.5 C157.07 21.47, 156.44 29.54, 156 43.5 M156 14.5 C156.65 23.91, 155.61 33.28, 156 43.5 M156 43.5 C157.9 52.05, 151.94 57.87, 141.5 58 M156 43.5 C153.73 54.66, 152.22 58.4, 141.5 58 M141.5 58 C94.89 59.97, 50.42 60.94, 14.5 58 M141.5 58 C113.44 58.15, 86.11 59.44, 14.5 58 M14.5 58 C3.71 57.28, 0.9 53.15, 0 43.5 M14.5 58 C3.58 59.04, 0.57 51.13, 0 43.5 M0 43.5 C-0.67 33.47, 0.98 26.68, 0 14.5 M0 43.5 C-0.01 35.17, 0.63 24.56, 0 14.5 M0 14.5 C1.07 6.12, 5.34 -1.02, 14.5 0 M0 14.5 C-0.58 6.17, 4.87 -1.24, 14.5 0" stroke="#1971c2" stroke-width="1" fill="none"></path></g><g transform="translate(242.2939682006836 755.8334045410156) rotate(0 41.705970764160156 17.5)"><text x="41.705970764160156" y="0" font-family="Virgil, Segoe UI Emoji" font-size="28px" fill="#1971c2" text-anchor="middle" style="white-space: pre;" direction="ltr" dominant-baseline="text-before-edge">Binary</text></g><g stroke-linecap="round" transform="translate(518.6666870117188 898.5835571289062) rotate(0 65.66668701171875 85.6666259765625)"><path d="M32 0 M32 0 C52.75 1.33, 71.14 -1.16, 99.33 0 M32 0 C46.87 -0.1, 59.18 0.37, 99.33 0 M99.33 0 C119.34 0, 132.5 10.84, 131.33 32 M99.33 0 C120.02 0.76, 131.72 9.62, 131.33 32 M131.33 32 C131.57 59.42, 132.95 86.78, 131.33 139.33 M131.33 32 C130.72 72.45, 131.24 112.68, 131.33 139.33 M131.33 139.33 C132.68 160, 122.23 171.11, 99.33 171.33 M131.33 139.33 C130.05 161.56, 122.29 171.77, 99.33 171.33 M99.33 171.33 C73.71 172.86, 52.46 170.61, 32 171.33 M99.33 171.33 C72.38 170.89, 46.35 171.79, 32 171.33 M32 171.33 C11.04 172.41, 0.43 160.44, 0 139.33 M32 171.33 C10.86 169.7, 0.97 158.47, 0 139.33 M0 139.33 C0.18 110.44, 0.33 85.06, 0 32 M0 139.33 C1.84 116.94, 0.4 93.26, 0 32 M0 32 C-0.54 10.31, 11.06 -0.16, 32 0 M0 32 C-0.6 8.81, 9.48 0.64, 32 0" stroke="#1e1e1e" stroke-width="1" fill="none"></path></g><g transform="translate(537.1534118652344 903.5835571289062) rotate(0 47.179962158203125 12.5)"><text x="47.179962158203125" y="0" font-family="Virgil, Segoe UI Emoji" font-size="20px" fill="#1e1e1e" text-anchor="middle" style="white-space: pre;" direction="ltr" dominant-baseline="text-before-edge">TheGraph</text></g><g transform="translate(537.8466720581055 942.4168090820312) rotate(0 45.46985626220703 50.743739064225394)"><text x="0" y="0" font-family="Virgil, Segoe UI Emoji" font-size="20.29749562569015px" fill="#1e1e1e" text-anchor="start" style="white-space: pre;" direction="ltr" dominant-baseline="text-before-edge">Aave</text><text x="0" y="25.371869532112687" font-family="Virgil, Segoe UI Emoji" font-size="20.29749562569015px" fill="#1e1e1e" text-anchor="start" style="white-space: pre;" direction="ltr" dominant-baseline="text-before-edge">Compound</text><text x="0" y="50.74373906422537" font-family="Virgil, Segoe UI Emoji" font-size="20.29749562569015px" fill="#1e1e1e" text-anchor="start" style="white-space: pre;" direction="ltr" dominant-baseline="text-before-edge">Cream</text><text x="0" y="76.11560859633806" font-family="Virgil, Segoe UI Emoji" font-size="20.29749562569015px" fill="#1e1e1e" text-anchor="start" style="white-space: pre;" direction="ltr" dominant-baseline="text-before-edge">etc.</text></g><g stroke-linecap="round"><g transform="translate(367.6237887287223 810.6022751435555) rotate(0 67.74477816477003 56.73890952347574)"><path d="M-0.62 -0.58 C22.24 18.34, 113.01 94.86, 136.11 114.06" stroke="#1971c2" stroke-width="1.5" fill="none" stroke-dasharray="8 9"></path></g><g transform="translate(367.6237887287223 810.6022751435555) rotate(0 67.74477816477003 56.73890952347574)"><path d="M136.82 114.16 L120.28 109.13 L128.38 100.12 L134.28 113.26" stroke="none" stroke-width="0" fill="#1971c2" fill-rule="evenodd"></path><path d="M135.39 112.89 C133.02 114.31, 130.64 111.22, 121.23 110.29 M122.83 110.94 C123.25 107.98, 125.98 103.96, 128.71 99.58 M130.36 100.59 C133.53 104.95, 133.61 110.01, 136.55 112.8 M136.11 114.06 C136.11 114.06, 136.11 114.06, 136.11 114.06" stroke="#1971c2" stroke-width="1.5" fill="none"></path></g></g><mask></mask><g stroke-linecap="round"><g transform="translate(498.00006103515625 938.0001525878906) rotate(0 -71.44814315279012 -62.04556023254992)"><path d="M-0.75 1.06 C-24.86 -19.84, -119.54 -104.07, -143.57 -125.15 M1.05 0.57 C-23.21 -20.14, -119.47 -102.74, -143.95 -123.51" stroke="#1971c2" stroke-width="1" fill="none"></path></g><g transform="translate(498.00006103515625 938.0001525878906) rotate(0 -71.44814315279012 -62.04556023254992)"><path d="M-142.87 -124.13 L-131.39 -117.91 L-136.44 -111.43 L-145.32 -123.98" stroke="none" stroke-width="0" fill="#1971c2" fill-rule="evenodd"></path><path d="M-142.63 -122.15 C-138.09 -122.2, -132.77 -120.31, -128.9 -118.11 M-143.65 -123.41 C-140.4 -121.9, -136.68 -121.47, -129.77 -119.7 M-128.97 -118.95 C-132.88 -117.05, -134.91 -113.89, -138.01 -108.75 M-130.11 -118.88 C-132.36 -115.88, -135.4 -113.2, -138.03 -110.47 M-137.52 -110.18 C-138.65 -112.87, -142.16 -117.36, -145.31 -122.52 M-137.38 -110.22 C-138.97 -112.43, -140.26 -116.02, -143.68 -123.42 M-143.95 -123.51 C-143.95 -123.51, -143.95 -123.51, -143.95 -123.51 M-143.95 -123.51 C-143.95 -123.51, -143.95 -123.51, -143.95 -123.51" stroke="#1971c2" stroke-width="1" fill="none"></path></g></g><mask></mask><g transform="translate(402.66668701171875 844.0000915527344) rotate(38.61492969398366 38.56996154785156 12.5)"><text x="0" y="0" font-family="Virgil, Segoe UI Emoji" font-size="20px" fill="#1971c2" text-anchor="start" style="white-space: pre;" direction="ltr" dominant-baseline="text-before-edge">Address</text></g><g transform="translate(357.33343505859375 897.3335266113281) rotate(42.267966026794284 59.919944763183594 37.5)"><text x="0" y="0" font-family="Virgil, Segoe UI Emoji" font-size="20px" fill="#1971c2" text-anchor="start" style="white-space: pre;" direction="ltr" dominant-baseline="text-before-edge">Loans,</text><text x="0" y="25" font-family="Virgil, Segoe UI Emoji" font-size="20px" fill="#1971c2" text-anchor="start" style="white-space: pre;" direction="ltr" dominant-baseline="text-before-edge">Liquidations,</text><text x="0" y="50" font-family="Virgil, Segoe UI Emoji" font-size="20px" fill="#1971c2" text-anchor="start" style="white-space: pre;" direction="ltr" dominant-baseline="text-before-edge">Repayments</text></g><g stroke-linecap="round"><g transform="translate(198.00006103515625 746.6667785644531) rotate(0 -37.51629576876161 -96.07219031676652)"><path d="M0.17 0.9 C-12.37 -12.38, -71.03 -48.06, -74.31 -80.39 C-77.59 -112.71, -28.42 -174.02, -19.49 -193.04 M-1.19 0.32 C-13.94 -12.72, -72 -47.07, -75.07 -79.05 C-78.14 -111.03, -28.73 -172.41, -19.64 -191.57" stroke="#1971c2" stroke-width="1" fill="none"></path></g><g transform="translate(198.00006103515625 746.6667785644531) rotate(0 -37.51629576876161 -96.07219031676652)"><path d="M-18.25 -189.71 L-21.94 -175.19 L-30.36 -182.6 L-18.42 -190.33" stroke="none" stroke-width="0" fill="#1971c2" fill-rule="evenodd"></path><path d="M-18.52 -191.12 C-20.88 -184.45, -20.71 -180.36, -22.89 -176.05 M-19.19 -190.95 C-19.52 -186.81, -20.19 -180.07, -20.99 -176.28 M-20.99 -176.7 C-23.54 -178.55, -28.72 -180.65, -33.23 -183.49 M-20.81 -176.7 C-25.86 -179.88, -29.76 -181.64, -32.14 -183.26 M-32.41 -183.49 C-28.79 -185.16, -25.12 -188.51, -20.75 -190.37 M-32.25 -182.83 C-28.94 -185.92, -26.5 -188.08, -20.23 -191.97 M-19.64 -191.57 C-19.64 -191.57, -19.64 -191.57, -19.64 -191.57 M-19.64 -191.57 C-19.64 -191.57, -19.64 -191.57, -19.64 -191.57" stroke="#1971c2" stroke-width="1" fill="none"></path></g></g><mask></mask><g transform="translate(10 639.3334655761719) rotate(0 52.734375 36)"><text x="52.734375" y="0" font-family="Cascadia, Segoe UI Emoji" font-size="20px" fill="#2f9e44" text-anchor="middle" style="white-space: pre;" direction="ltr" dominant-baseline="text-before-edge">Attest</text><text x="52.734375" y="24" font-family="Cascadia, Segoe UI Emoji" font-size="20px" fill="#2f9e44" text-anchor="middle" style="white-space: pre;" direction="ltr" dominant-baseline="text-before-edge">0xabcd...</text><text x="52.734375" y="48" font-family="Cascadia, Segoe UI Emoji" font-size="20px" fill="#2f9e44" text-anchor="middle" style="white-space: pre;" direction="ltr" dominant-baseline="text-before-edge">78/100</text></g><g stroke-linecap="round" transform="translate(775.33349609375 668.0000915527344) rotate(0 104.99993896484375 111.33331298828125)"><path d="M32 0 M32 0 C65.2 0.47, 97.73 0.89, 178 0 M32 0 C84.43 1.1, 138.66 0.45, 178 0 M178 0 C200.54 -0.98, 208.29 12.33, 210 32 M178 0 C199.97 0.61, 208.92 8.99, 210 32 M210 32 C209.12 72.76, 209.1 112.46, 210 190.67 M210 32 C211.34 72, 211.07 111.85, 210 190.67 M210 190.67 C210.65 211.01, 198.23 222.29, 178 222.67 M210 190.67 C211.2 210.07, 198.29 220.84, 178 222.67 M178 222.67 C123.03 224.87, 66.1 222.49, 32 222.67 M178 222.67 C133.36 222.44, 86.97 220.8, 32 222.67 M32 222.67 C10.13 221.46, -0.32 213.19, 0 190.67 M32 222.67 C9.9 221.68, 1.7 212.27, 0 190.67 M0 190.67 C0.79 143.06, 0.19 91.95, 0 32 M0 190.67 C0.93 146.84, -0.49 101.09, 0 32 M0 32 C1.64 9.82, 9.07 0.17, 32 0 M0 32 C-1.92 11.22, 12.56 -0.23, 32 0" stroke="#e03131" stroke-width="1" fill="none"></path></g><g transform="translate(784.3935012817383 673.0000915527344) rotate(0 95.93993377685547 25)"><text x="95.93993377685547" y="0" font-family="Virgil, Segoe UI Emoji" font-size="20px" fill="#e03131" text-anchor="middle" style="white-space: pre;" direction="ltr" dominant-baseline="text-before-edge">Validators</text><text x="95.93993377685547" y="25" font-family="Virgil, Segoe UI Emoji" font-size="20px" fill="#e03131" text-anchor="middle" style="white-space: pre;" direction="ltr" dominant-baseline="text-before-edge">(Gelato web3 Func)</text></g><g stroke-linecap="round" transform="translate(802.6666259765625 746.0000915527344) rotate(0 78.00006103515625 29)"><path d="M2 5.71 C2 5.71, 2 5.71, 2 5.71 M2 5.71 C2 5.71, 2 5.71, 2 5.71 M1.74 12.11 C2.34 10.15, 4.43 8.43, 8.3 4.56 M1.74 12.11 C3.08 9.67, 4.98 8.24, 8.3 4.56 M1.47 18.51 C5.52 12.47, 11.56 7.22, 16.56 1.15 M1.47 18.51 C4.8 14.6, 9.23 8.68, 16.56 1.15 M1.87 24.15 C6.57 16.49, 12.32 11.67, 21.55 1.51 M1.87 24.15 C7.97 16.34, 14.85 8.73, 21.55 1.51 M1.61 30.55 C8.05 19.24, 18.64 12.33, 26.54 1.87 M1.61 30.55 C5.87 24.68, 11.65 17.02, 26.54 1.87 M1.35 36.95 C8.1 28.71, 19.37 19.5, 32.18 1.47 M1.35 36.95 C13.27 23.84, 25.01 8.82, 32.18 1.47 M1.74 42.59 C8.24 31.46, 19.37 22.65, 37.17 1.83 M1.74 42.59 C11.82 30.78, 23.99 18.1, 37.17 1.83 M2.14 48.23 C17.88 29.65, 31.99 11.42, 42.81 1.44 M2.14 48.23 C12.72 36.96, 23.08 25.04, 42.81 1.44 M3.84 52.37 C17.17 35.16, 33.34 18.59, 47.8 1.8 M3.84 52.37 C20.36 31.98, 37.39 13.87, 47.8 1.8 M5.55 56.5 C24.13 36.08, 43.83 12.64, 53.44 1.41 M5.55 56.5 C23.42 35.4, 42.37 16.3, 53.44 1.41 M9.22 58.37 C21.91 44.05, 34.88 29.5, 58.43 1.77 M9.22 58.37 C18.96 46.72, 30.59 35.16, 58.43 1.77 M14.87 57.97 C32.78 39.27, 49.81 17.85, 63.42 2.13 M14.87 57.97 C33.3 36.36, 52.99 13.63, 63.42 2.13 M19.85 58.33 C38.48 35.72, 56.09 14.63, 69.06 1.73 M19.85 58.33 C35.05 42.7, 48.43 26.63, 69.06 1.73 M25.5 57.94 C38.97 42.52, 54.35 25.19, 74.05 2.09 M25.5 57.94 C44.19 37.66, 62.32 16.33, 74.05 2.09 M30.48 58.3 C48.94 35.9, 67.05 14.52, 79.69 1.7 M30.48 58.3 C42.48 45.22, 51.72 32.95, 79.69 1.7 M35.47 58.66 C53.7 38.39, 72.14 18.95, 84.68 2.06 M35.47 58.66 C47.85 43.61, 59.11 30.12, 84.68 2.06 M41.11 58.27 C55.98 40.13, 71.75 23.32, 90.32 1.66 M41.11 58.27 C58.1 38.18, 74.77 17.8, 90.32 1.66 M46.1 58.63 C56.19 47.6, 64.11 37.14, 95.31 2.02 M46.1 58.63 C60.73 41.6, 75.6 24.05, 95.31 2.02 M51.74 58.23 C65.15 42.48, 80.24 22.4, 100.29 2.38 M51.74 58.23 C68.3 41.12, 82.86 22.18, 100.29 2.38 M56.73 58.59 C68.9 44.77, 80.84 31.84, 105.94 1.99 M56.73 58.59 C72.25 40.77, 88.3 23.79, 105.94 1.99 M62.37 58.2 C74.26 41.94, 88.95 25.01, 110.92 2.35 M62.37 58.2 C78.89 39.54, 96.03 19.71, 110.92 2.35 M67.36 58.56 C85.06 39.07, 102.25 18.6, 116.57 1.95 M67.36 58.56 C78.49 45.82, 88.03 35.31, 116.57 1.95 M72.35 58.92 C81.91 47.13, 94.06 35.01, 121.55 2.31 M72.35 58.92 C87.21 41.87, 100.72 26.21, 121.55 2.31 M77.99 58.52 C88.77 46.52, 99.74 33.23, 127.2 1.92 M77.99 58.52 C89.62 46.55, 99.64 34.1, 127.2 1.92 M82.98 58.88 C95.68 43.8, 109.64 30.84, 132.18 2.28 M82.98 58.88 C101.93 36.84, 121.09 15.06, 132.18 2.28 M88.62 58.49 C107.03 36.3, 127.05 14.44, 137.17 2.64 M88.62 58.49 C101.9 42.6, 118.1 24.81, 137.17 2.64 M93.61 58.85 C106.84 43.29, 117.66 30.91, 142.81 2.24 M93.61 58.85 C111.99 36.74, 131.73 14.56, 142.81 2.24 M99.25 58.45 C108.46 45.82, 119.95 33.98, 148.46 1.85 M99.25 58.45 C114.82 40.46, 130.62 23.12, 148.46 1.85 M104.24 58.81 C116.35 45.8, 130.53 32.24, 152.13 3.72 M104.24 58.81 C120.43 38.86, 137.45 19.5, 152.13 3.72 M109.23 59.17 C122.4 42.48, 135.76 27.38, 155.15 6.34 M109.23 59.17 C123.24 41.98, 137.47 25.07, 155.15 6.34 M114.87 58.78 C128.8 43.25, 142.45 29.29, 156.2 11.23 M114.87 58.78 C125.35 47.14, 137.09 35.07, 156.2 11.23 M119.86 59.14 C126.37 50.94, 135.31 39.65, 155.94 17.63 M119.86 59.14 C134.65 42.19, 147.65 27.65, 155.94 17.63 M125.5 58.74 C134.86 45.68, 148.51 32.95, 155.68 24.03 M125.5 58.74 C132.9 51.13, 139.43 41.06, 155.68 24.03 M130.49 59.1 C139.02 49.44, 145.73 42.97, 156.07 29.67 M130.49 59.1 C139.97 48.71, 150.03 36.66, 156.07 29.67 M136.13 58.71 C142.41 53.22, 149.14 43.16, 155.81 36.07 M136.13 58.71 C142.99 51.69, 148.63 43.8, 155.81 36.07 M141.77 58.31 C145.27 54.66, 149.86 49.6, 155.55 42.47 M141.77 58.31 C145.47 54.52, 148.49 49.16, 155.55 42.47 M148.73 56.41 C150.15 54.06, 152.13 51.39, 155.29 48.86 M148.73 56.41 C150.51 54.87, 152.29 53.07, 155.29 48.86 M3.32 54.11 C3.32 54.11, 3.32 54.11, 3.32 54.11 M3.32 54.11 C3.32 54.11, 3.32 54.11, 3.32 54.11 M10.47 55.02 C8.3 52.83, 4.96 49.93, 0.66 46.5 M10.47 55.02 C7.17 52.63, 4.52 50.4, 0.66 46.5 M16.11 54.63 C11.23 51.99, 4.54 45.71, 0.26 40.85 M16.11 54.63 C12.58 52.44, 9.14 49.21, 0.26 40.85 M22.51 54.89 C16.05 51.46, 12.94 45.16, 0.62 35.87 M22.51 54.89 C18.01 49.61, 12.19 45.71, 0.62 35.87 M28.91 55.15 C21.11 48.21, 9.83 38.8, 0.98 30.88 M28.91 55.15 C21.73 48.79, 16.71 43.8, 0.98 30.88 M34.55 54.76 C24.82 46.14, 18.66 41.93, 0.59 25.24 M34.55 54.76 C25.74 46.27, 15.72 38.05, 0.59 25.24 M40.95 55.02 C23.47 40.61, 8.41 27.18, 0.95 20.25 M40.95 55.02 C31.71 47.94, 24.73 40.61, 0.95 20.25 M47.35 55.28 C36.2 45.31, 27.43 37.53, 0.55 14.61 M47.35 55.28 C29.63 39.75, 13.72 26.21, 0.55 14.61 M52.99 54.89 C41.07 44.64, 27.86 32.7, 0.91 9.62 M52.99 54.89 C33.56 38.53, 14.35 20.52, 0.91 9.62 M59.39 55.15 C43.22 40.83, 31.79 29.3, 2.03 5.29 M59.39 55.15 C41.58 38.97, 23.88 23.13, 2.03 5.29 M65.78 55.41 C53.19 45.15, 40.82 34.96, 5.41 2.92 M65.78 55.41 C41.92 35.53, 20.82 15.67, 5.41 2.92 M71.43 55.01 C51.73 37.82, 34.69 24.44, 8.03 -0.09 M71.43 55.01 C47.68 34.24, 21.91 12.28, 8.03 -0.09 M77.83 55.28 C63.85 43.84, 47.51 27.09, 12.92 -1.15 M77.83 55.28 C59.72 39.62, 40.99 23.51, 12.92 -1.15 M84.22 55.54 C66.19 36.79, 46.99 22.92, 17.05 -2.85 M84.22 55.54 C58.64 32.34, 30.76 9.09, 17.05 -2.85 M89.87 55.14 C66.15 32.84, 38.02 10.12, 23.45 -2.59 M89.87 55.14 C64.03 32.57, 38.1 11.28, 23.45 -2.59 M96.26 55.4 C80.8 42.27, 66.4 29.95, 29.1 -2.98 M96.26 55.4 C77.8 38.14, 58.86 22.54, 29.1 -2.98 M102.66 55.67 C75.91 33.79, 49.39 8.43, 35.49 -2.72 M102.66 55.67 C88.07 42.81, 74.94 31.69, 35.49 -2.72 M108.31 55.27 C90.95 39.34, 72.78 22.5, 41.89 -2.46 M108.31 55.27 C88.93 39.01, 71.87 22.02, 41.89 -2.46 M114.7 55.53 C89.87 36.06, 64.5 13.8, 47.53 -2.86 M114.7 55.53 C95.51 37.71, 76.84 21.26, 47.53 -2.86 M121.1 55.79 C97.82 35.16, 75.01 19.53, 53.93 -2.6 M121.1 55.79 C96.21 33.05, 72.16 11.43, 53.93 -2.6 M126.74 55.4 C104.94 35.01, 80.87 13.86, 60.33 -2.33 M126.74 55.4 C102.61 34.88, 76.77 12.94, 60.33 -2.33 M133.14 55.66 C116.96 42.42, 101.73 26.99, 65.97 -2.73 M133.14 55.66 C115.42 41.14, 98.66 25.83, 65.97 -2.73 M141.8 57.89 C119.39 41.62, 98.77 20.88, 72.37 -2.47 M141.8 57.89 C125.27 44.45, 107.45 28.74, 72.37 -2.47 M146.69 56.84 C129.23 40.63, 111.06 25.77, 78.77 -2.21 M146.69 56.84 C124.02 37.66, 103.38 17.66, 78.77 -2.21 M150.83 55.13 C132.89 38.22, 113.75 24.84, 84.41 -2.6 M150.83 55.13 C130.08 37.62, 109.68 18.02, 84.41 -2.6 M153.45 52.11 C127.74 29.66, 103.2 7.28, 90.81 -2.34 M153.45 52.11 C131.96 33.27, 110.14 14.61, 90.81 -2.34 M156.07 49.1 C136.94 34.38, 120.75 18.3, 97.21 -2.08 M156.07 49.1 C132.03 28.61, 108.4 8.08, 97.21 -2.08 M155.68 43.45 C138.4 25.79, 121.13 12.24, 102.85 -2.47 M155.68 43.45 C137.05 26.03, 117.49 9.83, 102.85 -2.47 M156.04 38.47 C139.22 24.06, 122.51 9.16, 109.25 -2.21 M156.04 38.47 C140.61 24.45, 124.36 10.88, 109.25 -2.21 M156.4 33.48 C143.75 24.32, 133.29 13.11, 115.65 -1.95 M156.4 33.48 C142.24 20.78, 126.48 8.02, 115.65 -1.95 M156 27.84 C146.46 20.89, 137.42 13.74, 121.29 -2.34 M156 27.84 C147.31 21.69, 139.8 13.62, 121.29 -2.34 M156.37 22.85 C151.08 15.18, 143.44 9.83, 127.69 -2.08 M156.37 22.85 C148.89 16.56, 142.78 10.13, 127.69 -2.08 M156.73 17.86 C151.26 14.46, 147.25 7.44, 134.08 -1.82 M156.73 17.86 C149.48 10.56, 141.52 5.95, 134.08 -1.82 M156.33 12.22 C151.23 10.43, 149.68 7.23, 139.73 -2.22 M156.33 12.22 C151.42 9.31, 148.92 5.04, 139.73 -2.22" stroke="#a5d8ff" stroke-width="0.5" fill="none"></path><path d="M14.5 0 M14.5 0 C58.56 0.45, 107.85 1.99, 141.5 0 M14.5 0 C60.28 0.12, 107.38 0.13, 141.5 0 M141.5 0 C151.88 -1.31, 155.92 4.92, 156 14.5 M141.5 0 C150.42 0.36, 156.02 4.98, 156 14.5 M156 14.5 C154.81 26.31, 157.62 37.46, 156 43.5 M156 14.5 C156.35 21.39, 156.12 26.43, 156 43.5 M156 43.5 C154.22 52.95, 150.69 57.8, 141.5 58 M156 43.5 C157.08 54.06, 149.86 57.73, 141.5 58 M141.5 58 C104.5 57.39, 65.25 58.23, 14.5 58 M141.5 58 C102.77 57.28, 66.56 58.22, 14.5 58 M14.5 58 C4.44 57.92, -1.84 51.5, 0 43.5 M14.5 58 C6.36 60.03, 0.91 55.12, 0 43.5 M0 43.5 C2.06 37, -0.44 29.64, 0 14.5 M0 43.5 C-0.28 38.54, -0.86 32.4, 0 14.5 M0 14.5 C1.43 6.43, 5.25 0.33, 14.5 0 M0 14.5 C-0.25 6.5, 2.93 1.13, 14.5 0" stroke="#1971c2" stroke-width="1" fill="none"></path></g><g transform="translate(838.9607162475586 757.5000915527344) rotate(0 41.705970764160156 17.5)"><text x="41.705970764160156" y="0" font-family="Virgil, Segoe UI Emoji" font-size="28px" fill="#1971c2" text-anchor="middle" style="white-space: pre;" direction="ltr" dominant-baseline="text-before-edge">Binary</text></g><g stroke-linecap="round" transform="translate(1088.6668090820312 636.6667175292969) rotate(0 67.00006103515625 41)"><path d="M2.98 7.89 C2.98 7.89, 2.98 7.89, 2.98 7.89 M2.98 7.89 C2.98 7.89, 2.98 7.89, 2.98 7.89 M0.75 16.55 C3.68 14.86, 4.94 11.88, 10.59 5.23 M0.75 16.55 C2.99 13.26, 5.89 11.75, 10.59 5.23 M1.15 22.2 C2.5 19.64, 8.3 13.86, 17.55 3.33 M1.15 22.2 C6.81 15.41, 13.63 7.74, 17.55 3.33 M0.89 28.6 C11.13 19.88, 16.63 8.68, 23.19 2.94 M0.89 28.6 C7.76 21.72, 13.9 14.56, 23.19 2.94 M1.28 34.24 C10.42 21.76, 22.12 10.54, 28.84 2.54 M1.28 34.24 C11.48 22.84, 21.75 11.2, 28.84 2.54 M1.02 40.64 C10.34 28.56, 19.77 18.01, 33.82 2.9 M1.02 40.64 C14.12 26.19, 27.93 10.23, 33.82 2.9 M0.76 47.03 C11.43 33.77, 25.49 18.99, 39.47 2.51 M0.76 47.03 C13.82 32.46, 29.26 16.22, 39.47 2.51 M1.15 52.68 C17.02 32.89, 35.07 13.26, 44.45 2.87 M1.15 52.68 C16.12 34.94, 32.42 15.88, 44.45 2.87 M0.89 59.08 C15.35 42.99, 27.83 26.8, 50.1 2.47 M0.89 59.08 C16.38 41.98, 29.89 25.44, 50.1 2.47 M1.29 64.72 C20.57 39.48, 43.12 15.77, 55.08 2.83 M1.29 64.72 C12.29 50.93, 24.04 36.63, 55.08 2.83 M2.99 68.85 C23.09 47.04, 39.12 26.51, 60.73 2.44 M2.99 68.85 C19.26 50.38, 34.3 32.86, 60.73 2.44 M3.39 74.49 C23.39 52.61, 44.15 28.59, 65.71 2.8 M3.39 74.49 C27.05 46.92, 51.42 17.19, 65.71 2.8 M6.41 77.12 C28.47 54.4, 47.21 29.87, 71.36 2.4 M6.41 77.12 C21.16 60.16, 34.2 43.82, 71.36 2.4 M9.42 79.74 C23.17 65.53, 37.3 48.5, 76.34 2.76 M9.42 79.74 C32.38 52.64, 55.43 26.74, 76.34 2.76 M13.76 80.86 C39.41 50.69, 63.76 22.35, 81.99 2.37 M13.76 80.86 C30.83 60.78, 49.49 39.48, 81.99 2.37 M18.09 81.97 C39.39 58.8, 57.92 33.44, 86.97 2.73 M18.09 81.97 C44.22 53.94, 69.66 24.66, 86.97 2.73 M22.42 83.09 C42.82 62.16, 62.4 38.5, 92.62 2.33 M22.42 83.09 C50.47 49.99, 77.1 20.2, 92.62 2.33 M27.4 83.45 C45.35 64.49, 63.78 43.15, 97.6 2.69 M27.4 83.45 C54.32 54.23, 79.83 24.98, 97.6 2.69 M33.05 83.05 C57.5 58.42, 80.83 29.7, 103.25 2.3 M33.05 83.05 C60.39 53.4, 85.82 23.6, 103.25 2.3 M38.03 83.41 C55.32 64.58, 70.35 45.33, 108.23 2.66 M38.03 83.41 C55.96 64.03, 74.3 43.69, 108.23 2.66 M43.02 83.77 C71.65 51.2, 97.92 19.47, 114.53 1.51 M43.02 83.77 C60.92 61.19, 81.26 39.59, 114.53 1.51 M48.66 83.38 C71.46 55.62, 95.07 32.69, 119.52 1.87 M48.66 83.38 C76.04 51.38, 102.68 20.06, 119.52 1.87 M53.65 83.74 C72.52 63.1, 88.74 45.13, 123.85 2.99 M53.65 83.74 C71.67 64.08, 87.96 45.86, 123.85 2.99 M59.29 83.34 C80.65 60.47, 101.16 34.42, 127.52 4.85 M59.29 83.34 C82.42 55.74, 107.78 29.12, 127.52 4.85 M64.28 83.7 C90.08 54.11, 114.75 26.88, 130.54 7.48 M64.28 83.7 C78.96 67.52, 93.86 49, 130.54 7.48 M69.92 83.31 C93.39 53.67, 117.7 25.45, 133.56 10.1 M69.92 83.31 C89.3 59.79, 109.58 37.38, 133.56 10.1 M74.91 83.67 C89.13 64.47, 103.12 48.38, 133.96 15.75 M74.91 83.67 C89.39 68.21, 102.23 52.49, 133.96 15.75 M80.55 83.28 C101.95 58.15, 121.32 34.39, 133.7 22.14 M80.55 83.28 C97.29 63.95, 112.82 44.89, 133.7 22.14 M85.54 83.64 C103.22 61.03, 122.43 41.23, 134.09 27.79 M85.54 83.64 C96.77 71.06, 107.79 58.58, 134.09 27.79 M91.19 83.24 C104.41 65.93, 118.5 48.77, 133.83 34.18 M91.19 83.24 C106.9 64.72, 122.31 47.21, 133.83 34.18 M96.17 83.6 C106.66 71.4, 120.05 56.13, 134.22 39.83 M96.17 83.6 C106.75 70.98, 115.31 60.17, 134.22 39.83 M101.82 83.21 C114.48 69.95, 123.56 56.51, 133.96 46.23 M101.82 83.21 C112.05 70.82, 123.9 57.85, 133.96 46.23 M106.8 83.57 C113.7 77.92, 120.74 71.78, 134.36 51.87 M106.8 83.57 C117.21 72.3, 126.87 61.4, 134.36 51.87 M112.45 83.17 C117.54 74.33, 125.25 67.64, 134.1 58.27 M112.45 83.17 C118.44 75.06, 127 67.04, 134.1 58.27 M116.78 84.29 C121.58 78.78, 128.06 71.83, 135.15 63.15 M116.78 84.29 C121.58 80.1, 124.85 75.07, 135.15 63.15 M126.36 79.36 C129.27 76.34, 130.17 73.68, 133.57 71.06 M126.36 79.36 C127.67 77.23, 129.48 75.82, 133.57 71.06 M8.05 79.15 C8.05 79.15, 8.05 79.15, 8.05 79.15 M8.05 79.15 C8.05 79.15, 8.05 79.15, 8.05 79.15 M15.95 80.72 C10.89 75.91, 8.25 74.16, 5.39 71.54 M15.95 80.72 C12.63 77.11, 8.8 75.32, 5.39 71.54 M21.6 80.33 C14.26 74.59, 6.69 69.38, 2.73 63.93 M21.6 80.33 C15.89 75.29, 10.9 70.64, 2.73 63.93 M27.99 80.59 C22.36 74.7, 12.3 65.87, 2.33 58.28 M27.99 80.59 C22.26 75.37, 17.3 71.28, 2.33 58.28 M33.64 80.2 C19.78 71.8, 10.8 58.86, 2.69 53.3 M33.64 80.2 C24.54 72.27, 14.52 63.33, 2.69 53.3 M40.04 80.46 C29.3 71.33, 20.99 65.25, 2.3 47.65 M40.04 80.46 C31.73 71.85, 21.87 65.56, 2.3 47.65 M46.43 80.72 C39.37 72.81, 27.25 66.72, 2.66 42.67 M46.43 80.72 C37.73 72.4, 27.81 64.13, 2.66 42.67 M52.08 80.32 C36.26 66.95, 22.99 54.06, 2.27 37.02 M52.08 80.32 C31.62 62.61, 11.78 47.12, 2.27 37.02 M58.47 80.59 C36.97 62.32, 16.56 42.69, 2.63 32.04 M58.47 80.59 C41.03 65.59, 24.24 52.18, 2.63 32.04 M64.12 80.19 C46.14 64.51, 24.01 44.7, 2.23 26.39 M64.12 80.19 C45.97 63.64, 27.81 48.93, 2.23 26.39 M70.51 80.45 C49.94 65.41, 31.52 48.79, 2.59 21.41 M70.51 80.45 C43.65 56.87, 15.83 34.62, 2.59 21.41 M76.91 80.71 C59.83 63.35, 40.36 46.73, 1.44 15.11 M76.91 80.71 C47.59 55.9, 19.89 30.92, 1.44 15.11 M82.56 80.32 C59.25 62.04, 35.24 39.38, 2.56 10.78 M82.56 80.32 C59.61 61.18, 38.3 41.56, 2.56 10.78 M88.95 80.58 C58.72 52.82, 26.65 28.67, 3.67 6.45 M88.95 80.58 C63.14 58.36, 39.32 38.19, 3.67 6.45 M94.6 80.19 C72.46 62.04, 50.3 42.97, 7.05 4.08 M94.6 80.19 C72.27 60.91, 49.92 42.44, 7.05 4.08 M100.99 80.45 C77.5 58.17, 55.55 37.09, 9.67 1.07 M100.99 80.45 C72.51 54.96, 43.12 29.39, 9.67 1.07 M107.39 80.71 C72.24 47.94, 36.31 19.42, 14.56 0.01 M107.39 80.71 C80.41 56.87, 51.24 30.17, 14.56 0.01 M113.79 80.97 C86.61 54.98, 57.06 34.35, 20.21 -0.38 M113.79 80.97 C79.58 52.13, 46.38 23.91, 20.21 -0.38 M118.68 79.92 C85.03 49.98, 47.65 20.38, 26.6 -0.12 M118.68 79.92 C82.11 48.75, 44 17, 26.6 -0.12 M123.57 78.87 C92.64 53.59, 64.67 27.49, 33 0.14 M123.57 78.87 C95.79 54.44, 67.08 28.61, 33 0.14 M127.7 77.16 C95.14 52.09, 65.58 25.53, 38.64 -0.25 M127.7 77.16 C93.39 47.71, 60.64 18.68, 38.64 -0.25 M130.32 74.14 C100.2 47.92, 71.44 22.36, 45.04 0.01 M130.32 74.14 C100.61 47.93, 70.14 21.6, 45.04 0.01 M132.95 71.13 C117.84 56.86, 100.25 41.1, 50.69 -0.39 M132.95 71.13 C115.03 57.19, 95.86 40.22, 50.69 -0.39 M134.06 66.79 C111.02 45.71, 87.95 30.14, 57.08 -0.12 M134.06 66.79 C115.98 53.16, 99.86 37.96, 57.08 -0.12 M133.67 61.15 C112.51 39.86, 89.54 22.39, 63.48 0.14 M133.67 61.15 C119.03 46.58, 101.87 34.38, 63.48 0.14 M134.03 56.16 C110.96 35.15, 85.7 14.59, 69.12 -0.26 M134.03 56.16 C111.75 38.72, 91.26 20.21, 69.12 -0.26 M133.63 50.52 C118.39 36.13, 101.71 22.78, 75.52 0 M133.63 50.52 C120.77 38.73, 109.4 27.24, 75.52 0 M133.99 45.53 C124.05 33.95, 110.15 26.74, 81.16 -0.39 M133.99 45.53 C120.51 33.76, 106.9 22.65, 81.16 -0.39 M133.6 39.89 C117.4 25.53, 102.73 13.65, 87.56 -0.13 M133.6 39.89 C116.4 25.66, 101.49 12.45, 87.56 -0.13 M133.96 34.9 C121.81 24.67, 107.58 15.27, 93.96 0.13 M133.96 34.9 C124.91 26.94, 113.67 16.95, 93.96 0.13 M133.57 29.26 C124.29 21.21, 116.54 13.74, 99.6 -0.26 M133.57 29.26 C123.94 21.1, 115.31 12.55, 99.6 -0.26 M133.93 24.27 C125.43 16.78, 116.68 12.08, 106 0 M133.93 24.27 C123.17 14.81, 112.77 7.38, 106 0 M133.53 18.63 C128.27 13.72, 123.05 10.41, 111.64 -0.39 M133.53 18.63 C125.27 10.91, 116.97 3.44, 111.64 -0.39 M134.65 14.3 C128.65 9.34, 124.14 5.63, 115.78 -2.1 M134.65 14.3 C130.26 9.08, 125.41 5.51, 115.78 -2.1" stroke="#b2f2bb" stroke-width="0.5" fill="none"></path><path d="M20.5 0 M20.5 0 C41.13 1.23, 60.8 1.32, 113.5 0 M20.5 0 C39.48 0.05, 59.72 0.76, 113.5 0 M113.5 0 C126.1 -0.45, 133.91 5.59, 134 20.5 M113.5 0 C127.78 1.65, 135.11 5.84, 134 20.5 M134 20.5 C135 29.98, 135.42 40.8, 134 61.5 M134 20.5 C134.27 32.41, 134.33 42.93, 134 61.5 M134 61.5 C133.6 75.26, 128.52 82.53, 113.5 82 M134 61.5 C135.36 74.37, 128.35 81.91, 113.5 82 M113.5 82 C84.44 79.63, 54.56 82.18, 20.5 82 M113.5 82 C78.74 80.5, 43.1 82.08, 20.5 82 M20.5 82 C8.6 82.24, -1.88 76.58, 0 61.5 M20.5 82 C8.85 83.88, 0.25 73.36, 0 61.5 M0 61.5 C-1.18 54.17, -1.64 43.05, 0 20.5 M0 61.5 C-0.7 49.28, -0.95 35.95, 0 20.5 M0 20.5 C0.4 7.71, 7.43 -0.9, 20.5 0 M0 20.5 C-1.56 4.82, 6.39 0.03, 20.5 0" stroke="#2f9e44" stroke-width="1" fill="none"></path></g><g transform="translate(1097.0731201171875 641.6667175292969) rotate(0 58.59375 36)"><text x="58.59375" y="0" font-family="Cascadia, Segoe UI Emoji" font-size="20px" fill="#2f9e44" text-anchor="middle" style="white-space: pre;" direction="ltr" dominant-baseline="text-before-edge">Attest Log</text><text x="58.59375" y="24" font-family="Cascadia, Segoe UI Emoji" font-size="20px" fill="#2f9e44" text-anchor="middle" style="white-space: pre;" direction="ltr" dominant-baseline="text-before-edge">0xabcd...</text><text x="58.59375" y="48" font-family="Cascadia, Segoe UI Emoji" font-size="20px" fill="#2f9e44" text-anchor="middle" style="white-space: pre;" direction="ltr" dominant-baseline="text-before-edge">78/100</text></g><g stroke-linecap="round"><g transform="translate(1077.3334350585938 687.3334045410156) rotate(0 -56.48219849690793 30.61430009230969)"><path d="M0.36 -0.73 C-18.65 9.64, -94.48 51.63, -113.33 61.95 M-0.9 1.51 C-19.6 11.54, -92.19 50, -110.97 60.16" stroke="#e03131" stroke-width="1" fill="none"></path></g><g transform="translate(1077.3334350585938 687.3334045410156) rotate(0 -56.48219849690793 30.61430009230969)"><path d="M-110.88 59.51 L-101.66 48.18 L-95.86 60.94 L-110.27 61.47" stroke="none" stroke-width="0" fill="#e03131" fill-rule="evenodd"></path><path d="M-111.87 59.33 C-106.88 55.65, -104.55 52.33, -103.24 46.66 M-110.41 59.8 C-108.04 56.5, -105.25 52.3, -102.35 48.54 M-103.03 48.99 C-101.15 50.03, -100.12 53.05, -96.71 60.19 M-102.28 48.2 C-100.53 50.42, -99.45 53.5, -96.17 58.79 M-95.28 59.47 C-101.87 59.98, -103.53 60.98, -110.35 58.68 M-95.64 58.77 C-100.82 60.09, -104.36 60.37, -111.35 59.72 M-110.97 60.16 C-110.97 60.16, -110.97 60.16, -110.97 60.16 M-110.97 60.16 C-110.97 60.16, -110.97 60.16, -110.97 60.16" stroke="#e03131" stroke-width="1" fill="none"></path></g></g><mask></mask><g stroke-linecap="round"><g transform="translate(804.5886568938236 807.9277469706649) rotate(0 -71.22042807236733 49.60201069145256)"><path d="M-0.32 -0.37 C-23.98 16.04, -118.82 82.87, -142.12 99.57" stroke="#1971c2" stroke-width="1.5" fill="none" stroke-dasharray="8 9"></path></g><g transform="translate(804.5886568938236 807.9277469706649) rotate(0 -71.22042807236733 49.60201069145256)"><path d="M-140.25 101.39 L-134.99 88.52 L-126.36 95.29 L-143.98 98.17" stroke="none" stroke-width="0" fill="#1971c2" fill-rule="evenodd"></path><path d="M-142.58 98.12 C-141.56 96.99, -139.13 92.1, -133.21 85.56 M-134.44 86.75 C-131.98 91.32, -130.1 94.95, -127.08 95.92 M-128.78 95.91 C-130.09 98.87, -135.88 99.39, -141.2 99.64 M-142.12 99.57 C-142.12 99.57, -142.12 99.57, -142.12 99.57" stroke="#1971c2" stroke-width="1.5" fill="none"></path></g></g><mask></mask><g stroke-linecap="round"><g transform="translate(666.4482041879464 920.7123387970031) rotate(0 74.4217023520498 -53.2638897271035)"><path d="M0.93 0.72 C25.9 -16.93, 124.27 -87.87, 148.88 -105.66 M-0.04 0.05 C24.81 -17.93, 122.51 -89.25, 147.69 -107.25" stroke="#1971c2" stroke-width="1" fill="none"></path></g><g transform="translate(666.4482041879464 920.7123387970031) rotate(0 74.4217023520498 -53.2638897271035)"><path d="M149.25 -105.65 L139.56 -95.63 L134.73 -103.29 L147.05 -106.53" stroke="none" stroke-width="0" fill="#1971c2" fill-rule="evenodd"></path><path d="M148.59 -107.82 C147.34 -105.2, 145.31 -101.01, 141.05 -93.69 M147.55 -107.24 C146.21 -103.77, 144.19 -100.11, 139.65 -93.82 M139.68 -93.66 C138.29 -99.27, 134.91 -101.87, 133.62 -103.15 M140.67 -94.3 C138.53 -96.53, 137.52 -98.49, 132.67 -104.85 M133.16 -105.05 C137.3 -105.75, 144.51 -107.67, 146.34 -107.26 M132.94 -103.83 C138.07 -104.85, 141.47 -106.04, 147.39 -107.92 M147.69 -107.25 C147.69 -107.25, 147.69 -107.25, 147.69 -107.25 M147.69 -107.25 C147.69 -107.25, 147.69 -107.25, 147.69 -107.25" stroke="#1971c2" stroke-width="1" fill="none"></path></g></g><mask></mask><g transform="translate(676.1534652709961 836.6667785644531) rotate(324.78242465291333 43.179969787597656 12.5)"><text x="43.179969787597656" y="0" font-family="Virgil, Segoe UI Emoji" font-size="20px" fill="#1971c2" text-anchor="middle" style="white-space: pre;" direction="ltr" dominant-baseline="text-before-edge">0xabcd...</text></g><g transform="translate(677.4134902954102 885.1667785644531) rotate(322.62817370074947 59.919944763183594 37.5)"><text x="0" y="0" font-family="Virgil, Segoe UI Emoji" font-size="20px" fill="#1971c2" text-anchor="start" style="white-space: pre;" direction="ltr" dominant-baseline="text-before-edge">Loans,</text><text x="0" y="25" font-family="Virgil, Segoe UI Emoji" font-size="20px" fill="#1971c2" text-anchor="start" style="white-space: pre;" direction="ltr" dominant-baseline="text-before-edge">Liquidations,</text><text x="0" y="50" font-family="Virgil, Segoe UI Emoji" font-size="20px" fill="#1971c2" text-anchor="start" style="white-space: pre;" direction="ltr" dominant-baseline="text-before-edge">Repayments</text></g><g stroke-linecap="round" transform="translate(596.0000610351562 675.3334655761719) rotate(0 71.9998779296875 43.666656494140625)"><path d="M73.54 -0.98 C84.13 -1.52, 96.73 1.98, 106.42 5.36 C116.1 8.74, 125.49 13.86, 131.64 19.31 C137.79 24.76, 142.09 31.5, 143.31 38.08 C144.54 44.66, 142.93 52.29, 139.01 58.79 C135.1 65.28, 128.06 72.58, 119.82 77.06 C111.58 81.54, 100.34 84.35, 89.57 85.68 C78.79 87.02, 66.02 86.79, 55.18 85.06 C44.35 83.32, 33.07 79.51, 24.58 75.27 C16.09 71.03, 8.15 65.89, 4.23 59.63 C0.3 53.38, -0.39 44.66, 1.04 37.74 C2.46 30.82, 6.4 23.62, 12.77 18.12 C19.13 12.61, 28.74 7.82, 39.25 4.71 C49.76 1.6, 69.25 0.11, 75.81 -0.55 C82.36 -1.21, 78.66 -0.19, 78.58 0.75 M47.54 1.96 C57.1 -0.6, 71 -0.43, 82.02 0.56 C93.05 1.56, 104.48 3.84, 113.67 7.92 C122.86 12, 132.27 18.79, 137.16 25.03 C142.05 31.27, 143.19 38.89, 143.01 45.34 C142.84 51.8, 141.37 58.01, 136.11 63.75 C130.86 69.49, 120.81 76.1, 111.47 79.79 C102.13 83.48, 90.98 84.97, 80.07 85.9 C69.16 86.83, 56.67 87.88, 46.01 85.36 C35.36 82.85, 23.71 76.16, 16.14 70.81 C8.57 65.46, 3.01 59.46, 0.6 53.26 C-1.8 47.07, -1.27 40.36, 1.71 33.63 C4.69 26.89, 10.6 18.12, 18.5 12.86 C26.39 7.6, 44.15 3.78, 49.08 2.06 C54.01 0.35, 47.82 1.87, 48.08 2.57" stroke="#e03131" stroke-width="1" fill="none"></path></g><g transform="translate(625.5283776245369 694.1231331515621) rotate(0 42.559959411621094 25)"><text x="42.559959411621094" y="0" font-family="Virgil, Segoe UI Emoji" font-size="20px" fill="#e03131" text-anchor="middle" style="white-space: pre;" direction="ltr" dominant-baseline="text-before-edge">If Score</text><text x="42.559959411621094" y="25" font-family="Virgil, Segoe UI Emoji" font-size="20px" fill="#e03131" text-anchor="middle" style="white-space: pre;" direction="ltr" dominant-baseline="text-before-edge">mismatch</text></g><g stroke-linecap="round"><g transform="translate(792.0001831054688 539.3334045410156) rotate(0 -23.22377724390867 103.64594089612368)"><path d="M-0.93 -0.47 C-8.76 19.53, -47.13 85.76, -46.9 120.46 C-46.67 155.17, -7.18 193.05, 0.45 207.76" stroke="#e03131" stroke-width="1.5" fill="none" stroke-dasharray="8 9"></path></g><g transform="translate(792.0001831054688 539.3334045410156) rotate(0 -23.22377724390867 103.64594089612368)"><path d="M2.24 206.82 L-12.76 202.01 L-0.51 191.94 L0.96 209.74" stroke="none" stroke-width="0" fill="#e03131" fill-rule="evenodd"></path><path d="M-0.14 206.64 C-3.82 206.83, -7.85 202.67, -11.69 201.83 M-13.54 199.93 C-10.05 197.79, -7.48 196.48, -3.04 193.25 M-1.23 194.46 C-1.37 198.43, -1.55 204.13, 1.4 207.34 M0.45 207.76 C0.45 207.76, 0.45 207.76, 0.45 207.76" stroke="#e03131" stroke-width="1.5" fill="none"></path></g></g><mask></mask><g stroke-linecap="round"><g transform="translate(796.0001831054688 771.3334045410156) rotate(0 -40.71232089439866 -9.861893520927993)"><path d="M1.01 0.1 C-9.32 -0.35, -49.19 0.12, -62.98 -2.84 C-76.78 -5.8, -78.71 -15.08, -81.78 -17.66 M0.08 -0.9 C-10.35 -1.64, -50.35 -1.19, -64.1 -4.35 C-77.85 -7.5, -79.65 -17.65, -82.43 -19.82" stroke="#1971c2" stroke-width="1" fill="none"></path></g><g transform="translate(796.0001831054688 771.3334045410156) rotate(0 -40.71232089439866 -9.861893520927993)"><path d="M-82.19 -19.08 L-69.36 -12.89 L-79.6 -4.97 L-83.61 -17.84" stroke="none" stroke-width="0" fill="#1971c2" fill-rule="evenodd"></path><path d="M-82.31 -20.22 C-78.17 -18.03, -76.39 -15.9, -69.86 -11.33 M-83.01 -20.4 C-78.49 -17.67, -73.61 -14.74, -69.06 -11.99 M-68.58 -12.53 C-73.81 -9.87, -78 -7.96, -79.61 -4.77 M-69.22 -12.7 C-71.64 -10.6, -73.95 -9.71, -80.17 -5.56 M-79.52 -3.93 C-81.08 -10.39, -80.79 -14.97, -83.82 -19.49 M-79.94 -5.61 C-81.21 -10.32, -81.25 -15.39, -82.19 -20.54 M-82.43 -19.82 C-82.43 -19.82, -82.43 -19.82, -82.43 -19.82 M-82.43 -19.82 C-82.43 -19.82, -82.43 -19.82, -82.43 -19.82" stroke="#1971c2" stroke-width="1" fill="none"></path></g></g><mask></mask><g stroke-linecap="round"><g transform="translate(605.3334350585938 684.0000305175781) rotate(0 -129.12401423984215 -73.66619903664568)"><path d="M-0.79 0.46 C-43.94 -23.81, -215.59 -121.3, -258.66 -146.01 M1 -0.35 C-42.27 -24.93, -215.77 -123.34, -259.25 -147.79" stroke="#e03131" stroke-width="1" fill="none"></path></g><g transform="translate(605.3334350585938 684.0000305175781) rotate(0 -129.12401423984215 -73.66619903664568)"><path d="M-260.59 -147.36 L-242.95 -146.63 L-248.6 -134.73 L-259.03 -147.49" stroke="none" stroke-width="0" fill="#e03131" fill-rule="evenodd"></path><path d="M-258.68 -146.94 C-253.65 -147.13, -251.1 -147.63, -244.13 -148.03 M-259.64 -147.88 C-254.28 -146.84, -248.3 -146.51, -243.7 -146.57 M-243.45 -146.65 C-246.21 -141.82, -249.58 -140.22, -249.34 -135.95 M-243.91 -146.64 C-246.5 -142.44, -249.22 -138.19, -250.93 -135.59 M-249.61 -136.17 C-252.55 -140.86, -256.56 -143.09, -259.95 -147.01 M-250.17 -135.31 C-253.62 -139.21, -256.5 -144.38, -259.82 -147.87 M-259.25 -147.79 C-259.25 -147.79, -259.25 -147.79, -259.25 -147.79 M-259.25 -147.79 C-259.25 -147.79, -259.25 -147.79, -259.25 -147.79" stroke="#e03131" stroke-width="1" fill="none"></path></g></g><mask></mask><g transform="translate(452.59906005859375 532.6667175292969) rotate(0 52.734375 36)"><text x="52.734375" y="0" font-family="Cascadia, Segoe UI Emoji" font-size="20px" fill="#2f9e44" text-anchor="middle" style="white-space: pre;" direction="ltr" dominant-baseline="text-before-edge">Correct</text><text x="52.734375" y="24" font-family="Cascadia, Segoe UI Emoji" font-size="20px" fill="#2f9e44" text-anchor="middle" style="white-space: pre;" direction="ltr" dominant-baseline="text-before-edge">0xabcd...</text><text x="52.734375" y="48" font-family="Cascadia, Segoe UI Emoji" font-size="20px" fill="#2f9e44" text-anchor="middle" style="white-space: pre;" direction="ltr" dominant-baseline="text-before-edge">55/100</text></g><g transform="translate(169.47982449001756 78.00006442599823) rotate(0 87.890625 12)"><text x="87.890625" y="0" font-family="Cascadia, Segoe UI Emoji" font-size="20px" fill="#2f9e44" text-anchor="middle" style="white-space: pre;" direction="ltr" dominant-baseline="text-before-edge">OnChain Actions</text></g><g transform="translate(163.62044949001756 113.37042914496526) rotate(0 93.75 12)"><text x="93.75" y="0" font-family="Cascadia, Segoe UI Emoji" font-size="20px" fill="#1971c2" text-anchor="middle" style="white-space: pre;" direction="ltr" dominant-baseline="text-before-edge">Algorithm Binary</text></g><g transform="translate(175.33919949001756 148.74079386393228) rotate(0 82.03125 12)"><text x="82.03125" y="0" font-family="Cascadia, Segoe UI Emoji" font-size="20px" fill="#1e1e1e" text-anchor="middle" style="white-space: pre;" direction="ltr" dominant-baseline="text-before-edge">Infrastructure</text></g><g transform="translate(187.05794949001756 184.1111585828993) rotate(0 70.3125 12)"><text x="70.3125" y="0" font-family="Cascadia, Segoe UI Emoji" font-size="20px" fill="#f08c00" text-anchor="middle" style="white-space: pre;" direction="ltr" dominant-baseline="text-before-edge">Browser DApp</text></g><g transform="translate(181.19857449001756 219.48152330186633) rotate(0 76.171875 12)"><text x="76.171875" y="0" font-family="Cascadia, Segoe UI Emoji" font-size="20px" fill="#e03131" text-anchor="middle" style="white-space: pre;" direction="ltr" dominant-baseline="text-before-edge">Validator Set</text></g><g stroke-linecap="round" transform="translate(132.1852925618491 221.11115858289935) rotate(0 9.999966091579836 10.370364718966982)"><path d="M5.68 -0.06 L19 2.31 L18.49 3.88 L20.21 17.94 L16.29 19.45 L0.48 18.9 L0.84 15.67 L-0.63 1.04 L6.34 1.62" stroke="none" stroke-width="0" fill="#ffc9c9"></path><path d="M5 0 M5 0 C9.12 -0.5, 12.54 0.12, 15 0 M5 0 C8.01 -0.41, 10.89 0.33, 15 0 M15 0 C18.43 0.08, 19.2 1.32, 20 5 M15 0 C17.88 -0.21, 18.66 3.01, 20 5 M20 5 C20.18 7.29, 19.14 10.29, 20 15.74 M20 5 C19.95 7.94, 20.4 11.46, 20 15.74 M20 15.74 C21.72 17.28, 16.95 20.19, 15 20.74 M20 15.74 C18.5 20.64, 17.93 22.68, 15 20.74 M15 20.74 C11.76 20.41, 7.84 20.59, 5 20.74 M15 20.74 C12.79 20.67, 11.31 20.96, 5 20.74 M5 20.74 C0.78 19.73, 0 18.52, 0 15.74 M5 20.74 C-0.05 21.35, -1.59 20.23, 0 15.74 M0 15.74 C1.03 11.4, -0.51 8.1, 0 5 M0 15.74 C0.18 13.58, -0.25 10.18, 0 5 M0 5 C1.74 1.8, 1.51 1.14, 5 0 M0 5 C2.2 3.09, 2.13 0.08, 5 0" stroke="#e03131" stroke-width="1" fill="none"></path></g><g stroke-linecap="round" transform="translate(132.1852925618491 185.7407938639323) rotate(0 9.999966091579836 10.370364718966982)"><path d="M6.8 -0.96 L17.67 1.27 L18.8 5.76 L19.48 20.3 L16.54 19.97 L-0.25 21.23 L0.14 15.58 L1.45 4.73 L6.24 0.4" stroke="none" stroke-width="0" fill="#ffec99"></path><path d="M5 0 M5 0 C7.62 0.66, 11.36 0.21, 15 0 M5 0 C7.1 -0.42, 9.76 -0.48, 15 0 M15 0 C18.02 1.94, 21.41 0.26, 20 5 M15 0 C19.44 1.05, 19.09 1.51, 20 5 M20 5 C19.1 9.07, 19.97 12.32, 20 15.74 M20 5 C20.45 8.49, 20.6 12.26, 20 15.74 M20 15.74 C20.84 18.3, 16.66 21.81, 15 20.74 M20 15.74 C19.98 20.15, 17.96 18.98, 15 20.74 M15 20.74 C12.68 19.91, 10.02 20.39, 5 20.74 M15 20.74 C11.26 20.9, 8.52 21.16, 5 20.74 M5 20.74 C0.7 21.46, -0.25 19.85, 0 15.74 M5 20.74 C3.35 22.2, -1.22 19.83, 0 15.74 M0 15.74 C0.25 11.93, 0.89 7.25, 0 5 M0 15.74 C-0.28 11.64, 0.11 7.96, 0 5 M0 5 C1.42 3.18, 3.15 0.32, 5 0 M0 5 C0.6 1, -0.57 -2.08, 5 0" stroke="#f08c00" stroke-width="1" fill="none"></path></g><g stroke-linecap="round" transform="translate(132.1852925618491 150.3704291449653) rotate(0 9.999966091579836 10.370364718966982)"><path d="M5 0 M5 0 C8.59 -0.08, 11.85 0.78, 15 0 M5 0 C9.07 -0.11, 12.53 0.08, 15 0 M15 0 C18.98 1.63, 19.66 3.2, 20 5 M15 0 C17.8 1.45, 18.71 1.44, 20 5 M20 5 C20.88 9.19, 20.23 12.07, 20 15.74 M20 5 C19.9 8.09, 20.33 10.46, 20 15.74 M20 15.74 C18.28 17.95, 18.72 18.78, 15 20.74 M20 15.74 C20.3 16.85, 17.23 22.01, 15 20.74 M15 20.74 C11.78 20.67, 7.42 21.56, 5 20.74 M15 20.74 C11.78 20.29, 10.01 20.38, 5 20.74 M5 20.74 C0.5 21.32, -1.66 20, 0 15.74 M5 20.74 C1.15 21.56, 2.25 18.39, 0 15.74 M0 15.74 C-0.22 13.33, 0.65 9.39, 0 5 M0 15.74 C0.35 12.42, 0.07 8.73, 0 5 M0 5 C0.41 1.81, 3.49 1.59, 5 0 M0 5 C-1.76 -0.63, 1.81 0.33, 5 0" stroke="#1e1e1e" stroke-width="1" fill="none"></path></g><g stroke-linecap="round" transform="translate(132.1852925618491 115.00006442599827) rotate(0 9.999966091579836 10.370364718966982)"><path d="M6.78 -1.47 L17.39 1.27 L19.32 3.9 L20.1 18.26 L15.19 21.14 L1.32 20.32 L0.89 16.25 L1.39 1.21 L5.49 -0.86" stroke="none" stroke-width="0" fill="#a5d8ff"></path><path d="M5 0 M5 0 C6.95 0.95, 9.77 0.71, 15 0 M5 0 C8.37 0.44, 11.21 -0.27, 15 0 M15 0 C17.32 -1.47, 20.05 2.12, 20 5 M15 0 C19.28 2.1, 18.15 1.34, 20 5 M20 5 C19.98 8.58, 20.45 13.39, 20 15.74 M20 5 C20.39 8.84, 19.54 13.17, 20 15.74 M20 15.74 C19.09 18.38, 17.86 21.19, 15 20.74 M20 15.74 C21.44 20.91, 16.6 18.86, 15 20.74 M15 20.74 C11.44 20.83, 7.98 20.61, 5 20.74 M15 20.74 C11.94 20.45, 8.55 20.69, 5 20.74 M5 20.74 C0.75 19.3, 0.94 20.25, 0 15.74 M5 20.74 C3.44 19.63, 0.16 19.56, 0 15.74 M0 15.74 C0.74 13.56, 0.9 9.42, 0 5 M0 15.74 C0.1 11.92, -0.07 7.99, 0 5 M0 5 C-1.82 0.96, 0.95 0.02, 5 0 M0 5 C-1.04 3.16, 3.69 -2.07, 5 0" stroke="#1971c2" stroke-width="1" fill="none"></path></g><g stroke-linecap="round" transform="translate(132.1852925618491 79.62969970703125) rotate(0 9.999966091579836 10.370364718966982)"><path d="M6.54 1.08 L20.57 -0.24 L21.01 4.1 L16.9 19.69 L14.8 20.29 L0.43 17.67 L-0.71 15.02 L0.33 1.91 L6.3 1.76" stroke="none" stroke-width="0" fill="#b2f2bb"></path><path d="M5 0 M5 0 C7.59 0.84, 8.82 -0.84, 15 0 M5 0 C8.56 -0.3, 12.71 0.37, 15 0 M15 0 C16.57 1.63, 20.45 2.16, 20 5 M15 0 C17.72 -0.97, 22.02 -0.03, 20 5 M20 5 C21.12 7.17, 19.7 10.87, 20 15.74 M20 5 C20.25 9.67, 20.41 13.36, 20 15.74 M20 15.74 C18.9 17.54, 19.68 19.87, 15 20.74 M20 15.74 C19.37 19.59, 18.77 20.68, 15 20.74 M15 20.74 C12.76 21.26, 9.18 21.56, 5 20.74 M15 20.74 C12.66 20.63, 11.18 20.39, 5 20.74 M5 20.74 C0.45 19.77, 1.99 19.04, 0 15.74 M5 20.74 C3.71 21.63, 0.11 18.5, 0 15.74 M0 15.74 C-1.01 11.19, 1.02 7.55, 0 5 M0 15.74 C0.32 11.51, 0.26 8.56, 0 5 M0 5 C-0.52 2.32, 1.15 -0.39, 5 0 M0 5 C-1.81 0.14, 0.72 0.31, 5 0" stroke="#2f9e44" stroke-width="1" fill="none"></path></g></svg>